%FSTAX23Y23*%
%MOIN*%
%SFA1B1*%

%IPPOS*%
%ADD10C,0.005905*%
%ADD11C,0.006000*%
%ADD13C,0.010000*%
%ADD21C,0.009843*%
%ADD39C,0.019685*%
%LNpongboy-1*%
%LPD*%
G54D10*
X02019Y02196D02*
X02035D01*
X02019Y02243D02*
X02035D01*
X01862Y02196D02*
X01877D01*
X01862Y02243D02*
X01877D01*
X00403Y02364D02*
Y02474D01*
X00435Y02364D02*
Y02474D01*
X00403Y02364D02*
X00435D01*
X00403Y02474D02*
X00435D01*
X00566Y02411D02*
Y02427D01*
X00519Y02411D02*
Y02427D01*
X00381Y0224D02*
X00397D01*
X00381Y02287D02*
X00397D01*
X02214Y02825D02*
Y03247D01*
X02744Y02825D02*
Y03247D01*
X02214D02*
X02744D01*
X02214Y02825D02*
X02744D01*
X01814Y02358D02*
X01925D01*
X01814Y02326D02*
X01925D01*
X01814D02*
Y02358D01*
X01925Y02326D02*
Y02358D01*
X01972D02*
X02082D01*
X01972Y02326D02*
X02082D01*
X01972D02*
Y02358D01*
X02082Y02326D02*
Y02358D01*
X01578Y01732D02*
X01594D01*
X01578Y01685D02*
X01594D01*
X01925Y0175D02*
Y01765D01*
X01972Y0175D02*
Y01765D01*
X02008Y0175D02*
Y01765D01*
X02055Y0175D02*
Y01765D01*
X017Y01933D02*
Y022D01*
X00992Y01933D02*
Y022D01*
Y01933D02*
X017D01*
X00992Y022D02*
X017D01*
X00779Y02927D02*
X00795D01*
X00779Y02879D02*
X00795D01*
X02342Y0075D02*
X02401D01*
X02342Y00592D02*
X02401D01*
Y0075*
X01535Y00466D02*
Y00876D01*
Y00466D02*
X02342D01*
Y00876*
X01535D02*
X02342D01*
X01535Y00157D02*
X01594D01*
X01535Y00314D02*
X01594D01*
X01535Y00157D02*
Y00314D01*
X02401Y00031D02*
Y0044D01*
X01594D02*
X02401D01*
X01594Y00031D02*
Y0044D01*
Y00031D02*
X02401D01*
X0Y00118D02*
D01*
X0Y00109*
X00001Y00101*
X00002Y00093*
X00004Y00085*
X00007Y00077*
X0001Y0007*
X00013Y00062*
X00017Y00055*
X00022Y00048*
X00027Y00042*
X00033Y00036*
X00039Y0003*
X00045Y00025*
X00052Y0002*
X00059Y00015*
X00066Y00011*
X00073Y00008*
X00081Y00005*
X00089Y00003*
X00097Y00001*
X00105Y0*
X00113Y0*
X00118Y0*
X03819D02*
D01*
X03827Y0*
X03835Y00001*
X03843Y00002*
X03851Y00004*
X03859Y00007*
X03867Y0001*
X03874Y00013*
X03881Y00017*
X03888Y00022*
X03894Y00027*
X039Y00033*
X03906Y00039*
X03912Y00045*
X03916Y00051*
X03921Y00058*
X03925Y00066*
X03928Y00073*
X03931Y00081*
X03933Y00089*
X03935Y00097*
X03936Y00105*
X03936Y00113*
X03937Y00117*
Y03031D02*
D01*
X03936Y03039*
X03935Y03047*
X03934Y03056*
X03932Y03064*
X03929Y03071*
X03926Y03079*
X03923Y03086*
X03919Y03094*
X03914Y031*
X03909Y03107*
X03903Y03113*
X03897Y03119*
X03891Y03124*
X03884Y03129*
X03877Y03133*
X0387Y03137*
X03863Y03141*
X03855Y03143*
X03847Y03146*
X03839Y03147*
X03831Y03148*
X03823Y03149*
X03818Y03149*
X00118D02*
D01*
X00109Y03149*
X00101Y03148*
X00093Y03147*
X00085Y03145*
X00077Y03142*
X0007Y03139*
X00062Y03135*
X00055Y03131*
X00048Y03127*
X00042Y03121*
X00036Y03116*
X0003Y0311*
X00025Y03104*
X0002Y03097*
X00015Y0309*
X00011Y03083*
X00008Y03075*
X00005Y03067*
X00003Y0306*
X00001Y03052*
X0Y03043*
X0Y03035*
X0Y03031*
X00118Y0D02*
X03819D01*
X03937Y00117D02*
Y03031D01*
X00118Y03149D02*
X03818D01*
X0Y00118D02*
Y03031D01*
G54D11*
X0246Y01464D02*
Y02472D01*
X02421Y01488D02*
Y02444D01*
Y02472*
X0246D01*
X02204Y02444D02*
X02251D01*
X02204Y0237D02*
Y02444D01*
Y01488D02*
Y01562D01*
Y01488D02*
X02251D01*
X0237D02*
X02421D01*
Y01464D02*
X0246D01*
X02421D02*
Y01488D01*
X0237Y02448D02*
X02421D01*
G54D13*
X01065Y02645D02*
Y02595D01*
X01055Y02585*
X01035*
X01025Y02595*
Y02645*
X01005Y02585D02*
X00985D01*
X00995*
Y02645*
X01005Y02635*
X00453Y02576D02*
X00413D01*
X00433*
Y02516*
X00363D02*
Y02576D01*
X00393Y02546*
X00353*
X02069Y02508D02*
X02029D01*
X02049*
Y02448*
X02009Y02498D02*
X01999Y02508D01*
X01979*
X01969Y02498*
Y02488*
X01979Y02478*
X01989*
X01979*
X01969Y02468*
Y02458*
X01979Y02448*
X01999*
X02009Y02458*
X01912Y02508D02*
X01872D01*
X01892*
Y02448*
X01812D02*
X01852D01*
X01812Y02488*
Y02498*
X01822Y02508*
X01842*
X01852Y02498*
X00825Y0297D02*
Y0303D01*
X00795*
X00785Y0302*
Y03*
X00795Y0299*
X00825*
X00805D02*
X00785Y0297D01*
X00765Y0303D02*
X00725D01*
Y0302*
X00765Y0298*
Y0297*
X02065Y02286D02*
Y02346D01*
X02035*
X02025Y02336*
Y02316*
X02035Y02306*
X02065*
X02045D02*
X02025Y02286D01*
X01966Y02346D02*
X01986Y02336D01*
X02006Y02316*
Y02296*
X01996Y02286*
X01976*
X01966Y02296*
Y02306*
X01976Y02316*
X02006*
X00617Y02521D02*
Y02581D01*
X00587*
X00577Y02571*
Y02551*
X00587Y02541*
X00617*
X00597D02*
X00577Y02521D01*
X00517Y02581D02*
X00557D01*
Y02551*
X00537Y02561*
X00527*
X00517Y02551*
Y02531*
X00527Y02521*
X00547*
X00557Y02531*
X01907Y02286D02*
Y02346D01*
X01877*
X01867Y02336*
Y02316*
X01877Y02306*
X01907*
X01887D02*
X01867Y02286D01*
X01817D02*
Y02346D01*
X01847Y02316*
X01807*
X00427Y02329D02*
Y02389D01*
X00397*
X00387Y02379*
Y02359*
X00397Y02349*
X00427*
X00407D02*
X00387Y02329D01*
X00367Y02379D02*
X00357Y02389D01*
X00337*
X00327Y02379*
Y02369*
X00337Y02359*
X00347*
X00337*
X00327Y02349*
Y02339*
X00337Y02329*
X00357*
X00367Y02339*
X02261Y0334D02*
X02281D01*
X02271*
Y0329*
X02281Y0328*
X02291*
X02301Y0329*
X02241Y0328D02*
X02221D01*
X02231*
Y0334*
X02241Y0333*
X0109Y00528D02*
X011Y00538D01*
X0112*
X0113Y00528*
Y00488*
X0112Y00478*
X011*
X0109Y00488*
Y00508*
X0111*
X0103Y00478D02*
X0107D01*
X0103Y00518*
Y00528*
X0104Y00538*
X0106*
X0107Y00528*
X0107Y00963D02*
X0108Y00973D01*
X011*
X0111Y00963*
Y00923*
X011Y00913*
X0108*
X0107Y00923*
Y00943*
X0109*
X0105Y00913D02*
X0103D01*
X0104*
Y00973*
X0105Y00963*
X02017Y0191D02*
X02027Y0192D01*
X02047*
X02057Y0191*
Y0187*
X02047Y0186*
X02027*
X02017Y0187*
X01997Y0191D02*
X01987Y0192D01*
X01967*
X01957Y0191*
Y019*
X01967Y0189*
X01977*
X01967*
X01957Y0188*
Y0187*
X01967Y0186*
X01987*
X01997Y0187*
X01934Y0191D02*
X01944Y0192D01*
X01964*
X01974Y0191*
Y0187*
X01964Y0186*
X01944*
X01934Y0187*
X01874Y0186D02*
X01914D01*
X01874Y019*
Y0191*
X01884Y0192*
X01904*
X01914Y0191*
X01608Y01825D02*
X01618Y01835D01*
X01638*
X01648Y01825*
Y01785*
X01638Y01775*
X01618*
X01608Y01785*
X01588Y01775D02*
X01568D01*
X01578*
Y01835*
X01588Y01825*
X03216Y02716D02*
Y01259D01*
X03287*
Y02716D02*
Y01259D01*
X03216Y02716D02*
X03287D01*
G54D21*
X01029Y02165D02*
D01*
X01029Y02165*
X01029Y02166*
X01029Y02166*
X01029Y02166*
X01029Y02167*
X01029Y02167*
X01029Y02167*
X01028Y02167*
X01028Y02168*
X01028Y02168*
X01028Y02168*
X01028Y02169*
X01027Y02169*
X01027Y02169*
X01027Y02169*
X01026Y02169*
X01026Y02169*
X01026Y0217*
X01025Y0217*
X01025Y0217*
X01025Y0217*
X01024Y0217*
X01024*
X01024Y0217*
X01023Y0217*
X01023Y0217*
X01023Y0217*
X01022Y02169*
X01022Y02169*
X01022Y02169*
X01022Y02169*
X01021Y02169*
X01021Y02169*
X01021Y02168*
X01021Y02168*
X0102Y02168*
X0102Y02167*
X0102Y02167*
X0102Y02167*
X0102Y02167*
X0102Y02166*
X01019Y02166*
X01019Y02166*
X01019Y02165*
X01019Y02165*
X01019Y02165*
X01019Y02164*
X01019Y02164*
X0102Y02163*
X0102Y02163*
X0102Y02163*
X0102Y02163*
X0102Y02162*
X0102Y02162*
X01021Y02162*
X01021Y02161*
X01021Y02161*
X01021Y02161*
X01022Y02161*
X01022Y02161*
X01022Y0216*
X01022Y0216*
X01023Y0216*
X01023Y0216*
X01023Y0216*
X01024Y0216*
X01024Y0216*
X01024*
X01025Y0216*
X01025Y0216*
X01025Y0216*
X01026Y0216*
X01026Y0216*
X01026Y0216*
X01027Y02161*
X01027Y02161*
X01027Y02161*
X01028Y02161*
X01028Y02161*
X01028Y02162*
X01028Y02162*
X01028Y02162*
X01029Y02163*
X01029Y02163*
X01029Y02163*
X01029Y02163*
X01029Y02164*
X01029Y02164*
X01029Y02165*
X01029Y02165*
G54D39*
X01574Y00671D02*
X01692D01*
X02244Y00612D02*
Y0073D01*
X02185Y00671D02*
X02303D01*
X02244Y00236D02*
X02362D01*
X01692Y00177D02*
Y00295D01*
X01633Y00236D02*
X01751D01*
M02*