%FSTAX23Y23*%
%MOIN*%
%SFA1B1*%

%IPPOS*%
%AMD14*
4,1,8,0.026600,-0.016200,0.026600,0.016200,0.021200,0.021700,-0.021200,0.021700,-0.026600,0.016200,-0.026600,-0.016200,-0.021200,-0.021700,0.021200,-0.021700,0.026600,-0.016200,0.0*
1,1,0.010827,0.021200,-0.016200*
1,1,0.010827,0.021200,0.016200*
1,1,0.010827,-0.021200,0.016200*
1,1,0.010827,-0.021200,-0.016200*
%
%AMD16*
4,1,8,-0.017700,0.005900,-0.017700,-0.005900,-0.011800,-0.011800,0.011800,-0.011800,0.017700,-0.005900,0.017700,0.005900,0.011800,0.011800,-0.011800,0.011800,-0.017700,0.005900,0.0*
1,1,0.011811,-0.011800,0.005900*
1,1,0.011811,-0.011800,-0.005900*
1,1,0.011811,0.011800,-0.005900*
1,1,0.011811,0.011800,0.005900*
%
%AMD24*
4,1,8,0.020000,0.040000,-0.020000,0.040000,-0.040000,0.020000,-0.040000,-0.020000,-0.020000,-0.040000,0.020000,-0.040000,0.040000,-0.020000,0.040000,0.020000,0.020000,0.040000,0.0*
1,1,0.040000,0.020000,0.020000*
1,1,0.040000,-0.020000,0.020000*
1,1,0.040000,-0.020000,-0.020000*
1,1,0.040000,0.020000,-0.020000*
%
%AMD25*
4,1,8,-0.016500,0.040000,-0.040000,0.016500,-0.040000,-0.016500,-0.016500,-0.040000,0.016500,-0.040000,0.040000,-0.016500,0.040000,0.016500,0.016500,0.040000,-0.016500,0.040000,0.0*
%
%AMD27*
4,1,8,0.078700,0.157500,-0.078700,0.157500,-0.157500,0.078700,-0.157500,-0.078700,-0.078700,-0.157500,0.078700,-0.157500,0.157500,-0.078700,0.157500,0.078700,0.078700,0.157500,0.0*
1,1,0.157480,0.078700,0.078700*
1,1,0.157480,-0.078700,0.078700*
1,1,0.157480,-0.078700,-0.078700*
1,1,0.157480,0.078700,-0.078700*
%
%ADD10C,0.005905*%
%ADD13C,0.010000*%
G04~CAMADD=14~8~0.0~0.0~433.1~531.5~54.1~0.0~15~0.0~0.0~0.0~0.0~0~0.0~0.0~0.0~0.0~0~0.0~0.0~0.0~270.0~532.0~434.0*
%ADD14D14*%
%ADD15C,0.078740*%
G04~CAMADD=16~8~0.0~0.0~236.2~354.3~59.1~0.0~15~0.0~0.0~0.0~0.0~0~0.0~0.0~0.0~0.0~0~0.0~0.0~0.0~90.0~354.0~236.0*
%ADD16D16*%
%ADD17C,0.031496*%
%ADD18C,0.029527*%
%ADD19C,0.017716*%
%ADD20C,0.039370*%
%ADD21C,0.009843*%
%ADD22C,0.015748*%
%ADD23O,0.149606X0.098425*%
G04~CAMADD=24~8~0.0~0.0~800.0~800.0~200.0~0.0~15~0.0~0.0~0.0~0.0~0~0.0~0.0~0.0~0.0~0~0.0~0.0~0.0~0.0~800.0~800.0*
%ADD24D24*%
G04~CAMADD=25~4~0.0~0.0~800.0~800.0~0.0~234.3~0~0.0~0.0~0.0~0.0~0~0.0~0.0~0.0~0.0~0~0.0~0.0~0.0~45.0~800.0~800.0*
%ADD25D25*%
%ADD26C,0.118110*%
G04~CAMADD=27~8~0.0~0.0~3149.6~3149.6~787.4~0.0~15~0.0~0.0~0.0~0.0~0~0.0~0.0~0.0~0.0~0~0.0~0.0~0.0~0.0~3149.6~3149.6*
%ADD27D27*%
%ADD28C,0.043307*%
%ADD29C,0.094488*%
%ADD30C,0.039370*%
%ADD31C,0.125984*%
%ADD32C,0.060000*%
%ADD33C,0.059055*%
%LNpongboy-1*%
%LPD*%
G36*
X03586Y03073D02*
X03588Y03073D01*
X03591Y03072*
X03593Y03072*
X03596Y0307*
X03597Y03069*
X03598Y03068*
Y03062*
X03595Y03059*
X03584Y03062*
X03583*
X03583Y03062*
X03581Y03061*
X03579Y0306*
X03579Y03059*
X03578Y03058*
X03598Y03049*
X03598Y03048*
X03598Y03048*
X036Y03046*
X03601Y03043*
X03602Y03041*
Y03039*
Y03036*
Y03035*
X03601Y03034*
X03601Y03031*
X036Y03029*
X03597Y03026*
X03594Y03023*
X03592Y03023*
X0359Y03022*
X03587Y03021*
X03578*
X03576Y03022*
X03574Y03022*
X03572Y03023*
X03569Y03024*
X03567Y03026*
X03566Y03028*
Y03032*
X03569Y03035*
X0357*
X03584Y03032*
X03584*
X03585Y03033*
X03587Y03034*
X03589Y03036*
X03589Y03037*
X03589Y03039*
X03589*
X03589Y03039*
X03587Y0304*
X03586Y0304*
X03582Y03042*
X03578Y03043*
X03574Y03046*
X03571Y03048*
X03568Y0305*
X03567Y03051*
X03566Y03053*
Y03058*
Y03059*
X03566Y03061*
X03567Y03063*
X03568Y03066*
X0357Y03069*
X03574Y03071*
X03575Y03072*
X03578Y03073*
X03581Y03073*
X03585*
X03586Y03073*
G37*
G36*
X0343Y03072D02*
Y03071D01*
Y0307*
X03429Y03069*
X03428Y03066*
X03427Y03064*
X03426Y0306*
X03425Y03056*
X03422Y03047*
X03419Y03039*
X03417Y03035*
X03416Y03031*
X03414Y03028*
X03413Y03026*
X03411Y03024*
X0341Y03024*
X03406*
X03405Y03025*
X03405Y03025*
X03404Y03026*
X03403Y03028*
X03402Y0303*
X03401Y03033*
X03399Y03035*
X03398Y03039*
X03396Y03044*
X03394Y0305*
X03392Y03056*
X0339Y03064*
X03387Y03072*
X03391Y03075*
X03395*
X03396Y03074*
X03397Y03073*
X03398Y03071*
X03399Y0307*
X034Y03068*
X03401Y03065*
X03402Y03063*
X03403Y03059*
X03405Y03055*
X03406Y03051*
X03407Y03046*
X03408Y03046*
X03409Y03047*
X0341Y0305*
X03411Y03051*
X03411Y03053*
X03413Y03055*
X03414Y03058*
X03415Y03062*
X03417Y03065*
X03418Y0307*
X0342Y03075*
X03427*
X0343Y03072*
G37*
G36*
X02854Y03069D02*
X02856D01*
X02854Y03065*
X02856Y0297*
X02857Y02966*
X02856Y02965*
X02828*
X02825Y02967*
Y03011*
X02789*
Y0299*
X02791Y02966*
X02789Y02965*
X02762*
X0276Y02966*
X02759*
X0276Y02991*
X02759Y03069*
X0276Y03071*
X02787*
X02789Y03068*
Y03031*
X02825*
Y03053*
X02824Y03069*
X02825Y03071*
X02853*
X02854Y03069*
G37*
G36*
X03122Y03046D02*
X03125D01*
X03129Y03045*
X03132Y03044*
X03137Y03043*
X03142Y03042*
Y03029*
X03139Y03027*
X03139Y03027*
X03138Y03027*
X03136Y03029*
X03134Y0303*
X03128Y03031*
X03125Y03032*
X03122Y03032*
X03114*
X03112Y03032*
X0311Y03031*
X03108Y0303*
X03106Y03028*
X03105Y03026*
X03105Y03022*
Y03022*
X03105Y03021*
X03107Y0302*
X03108Y03019*
X03109Y03019*
X03111Y03018*
X03113Y03016*
X03116Y03015*
X03119Y03014*
X03123Y03012*
X03127Y03011*
X03132Y03009*
X03138Y03007*
X03138Y03007*
X03139Y03006*
X0314Y03004*
X03142Y03003*
X03144Y03*
X03145Y02998*
X03146Y02996*
X03146Y02994*
Y02985*
Y02985*
Y02984*
X03146Y02982*
X03144Y02979*
X03143Y02977*
X03142Y02975*
X0314Y02973*
X03138Y02972*
X03135Y0297*
X03131Y02968*
X03127Y02967*
X03123Y02965*
X03118Y02964*
X03111Y02963*
X0311*
X03109Y02964*
X03107*
X03104Y02964*
X03099Y02965*
X03095Y02966*
X03091Y02967*
X03089Y02968*
X03088Y02969*
X03087Y02969*
X03087Y0297*
Y02973*
Y02973*
Y02975*
X03087Y02976*
X03087Y02978*
X03088Y0298*
X03088Y02982*
X0309Y02983*
X03091Y02984*
X03091Y02984*
X03092Y02983*
X03094Y02982*
X03097Y02981*
X031Y02979*
X03104Y02978*
X03108Y02977*
X03113Y02977*
X03115*
X03117Y02977*
X03119Y02978*
X03121Y02979*
X03124Y02981*
X03126Y02983*
X03127Y02985*
X03128Y02988*
Y02988*
X03128Y02989*
X03126Y02991*
X03125Y02992*
X03124Y02992*
X03122Y02994*
X0312Y02995*
X03117Y02996*
X03114Y02998*
X0311Y02999*
X03106Y03001*
X03101Y03003*
X03095Y03004*
X03095Y03005*
X03094Y03006*
X03092Y03007*
X03091Y0301*
X03089Y03012*
X03088Y03014*
X03087Y03016*
X03087Y03018*
Y03027*
Y03027*
X03087Y03027*
X03088Y0303*
X0309Y03033*
X03092Y03037*
X03094Y03038*
X03097Y0304*
X03099Y03042*
X03102Y03043*
X03106Y03044*
X03109Y03045*
X03114Y03046*
X03118Y03046*
X0312*
X03122Y03046*
G37*
G36*
X03013D02*
X03016Y03045D01*
X03019Y03045*
X03022Y03044*
X03025Y03043*
X03027Y03042*
X03027Y03041*
X03028Y03041*
Y03028*
X03025Y03024*
X03024Y03024*
X03023Y03025*
X03021Y03026*
X03019Y03027*
X03016Y03028*
X03013Y03029*
X03009Y0303*
X03004Y03031*
X03004*
X03003Y0303*
X03001Y0303*
X03Y03029*
X02998Y03028*
X02996Y03026*
X02995Y03025*
X02994Y03022*
X02995*
X02996Y03022*
X02998Y03021*
X03Y0302*
X03003Y03019*
X03006Y03017*
X03012Y03014*
X03019Y03011*
X03022Y03009*
X03025Y03007*
X03027Y03006*
X03029Y03004*
X0303Y03003*
X0303Y03002*
X03033Y02991*
Y02991*
Y0299*
X03033Y02988*
X03032Y02987*
X03031Y02982*
X0303Y0298*
X03028Y02977*
X03027Y02975*
X03024Y02972*
X03021Y0297*
X03017Y02968*
X03013Y02966*
X03008Y02964*
X03002Y02964*
X02996Y02963*
X0299*
X02986Y02964*
X02982Y02964*
X02978Y02965*
X02973Y02966*
X0297Y02968*
X02968Y02969*
X02967Y0297*
Y02985*
X0297Y02988*
X0297Y02988*
X02972Y02987*
X02974Y02986*
X02978Y02984*
X02981Y02982*
X02985Y02981*
X02989Y0298*
X02993Y0298*
X02994*
X02996Y0298*
X02997Y0298*
X02999Y02981*
X03001Y02983*
X03003Y02984*
X03004Y02987*
Y02988*
X03004Y02989*
X03002Y0299*
X03002Y0299*
X03Y02991*
X02999Y02992*
X02997Y02993*
X02994Y02995*
X02991Y02996*
X02987Y02998*
X02983Y03*
X02978Y03002*
X02973Y03004*
X02972Y03005*
X02972Y03006*
X02971Y03007*
X0297Y03009*
X02968Y03013*
X02967Y03015*
X02967Y03017*
Y03025*
Y03026*
Y03026*
X02967Y03028*
X02969Y0303*
X0297Y03034*
X02972Y03035*
X02973Y03037*
X02975Y03039*
X02978Y03041*
X02981Y03042*
X02985Y03044*
X02989Y03045*
X02993Y03046*
X0301*
X03013Y03046*
G37*
G36*
X03483Y03068D02*
Y03034D01*
X03492*
X03493Y03033*
X03494*
X03496Y03033*
X03497Y03032*
X03499Y03031*
X03499Y0303*
X035Y03029*
Y03025*
X03497Y03022*
X03474*
X03471Y03025*
Y03069*
Y0307*
X03471Y0307*
X03472Y03072*
X03473Y03072*
X03475Y03073*
X03477Y03073*
X03479*
X03483Y03068*
G37*
G36*
X03561Y03069D02*
Y03025D01*
X03556Y03021*
X03554*
X03549Y03025*
Y03069*
X03554Y03073*
X03556*
X03561Y03069*
G37*
G36*
X03527Y03073D02*
X03528Y03072D01*
X03529Y03071*
X0353Y03069*
X03531Y03068*
X03532Y03065*
X03534Y03062*
X03535Y03058*
X03537Y03053*
X03539Y03047*
X03541Y03041*
X03543Y03034*
X03545Y03025*
X03541Y03021*
X03538*
X03538Y03022*
X03537Y03022*
X03536Y03023*
X03535Y03024*
X03534Y03026*
X03534Y03029*
X03533Y03032*
X03516*
X03515Y03031*
Y0303*
X03514Y03029*
X03513Y03028*
X03512Y03026*
X03511Y03024*
X0351Y03023*
X03509Y03022*
X03508Y03021*
X03505*
X03501Y03025*
Y03026*
X03502Y03027*
X03503Y0303*
X03503Y03033*
X03504Y03037*
X03506Y03041*
X03509Y03049*
X03512Y03058*
X03513Y03062*
X03515Y03066*
X03516Y03069*
X03518Y03071*
X03519Y03073*
X0352Y03073*
X03526*
X03527Y03073*
G37*
G36*
X03446Y03073D02*
X03448Y03072D01*
X0345Y0307*
X03452Y03068*
X03453Y03066*
X03454Y03064*
X03456Y03061*
X03457Y03058*
X03459Y03054*
X0346Y0305*
X03461Y03045*
X03468Y03025*
X03462Y03021*
X03461*
X03461Y03022*
X0346Y03022*
X03458Y03024*
X03456Y03027*
X03455Y0303*
X03454Y03032*
X03437*
Y03032*
X03436Y0303*
X03435Y03029*
X03435Y03027*
X03434Y03025*
X03432Y03023*
X0343Y03022*
X03428Y03021*
X03428*
X03427Y03022*
X03426Y03022*
X03423Y03024*
X03423Y03025*
X03423Y03027*
Y03027*
X03423Y03029*
X03424Y03031*
X03425Y03033*
X03426Y03037*
X03427Y0304*
X0343Y03048*
X03433Y03057*
X03435Y03061*
X03437Y03064*
X03439Y03067*
X0344Y0307*
X03442Y03072*
X03444Y03073*
X03445*
X03446Y03073*
G37*
G36*
X03592Y03012D02*
X03593Y03012D01*
X03595Y03011*
X03596Y03011*
X03598Y03009*
X03599Y03007*
Y03003*
Y03003*
X03598Y03002*
X03597Y03001*
X03596Y03*
X03595*
X03581Y03002*
X0358Y03*
Y02996*
X0358*
X03581Y02996*
X03582Y02996*
X03583Y02995*
X03587Y02994*
X03591Y02992*
X03596Y0299*
X036Y02987*
X03601Y02985*
X03602Y02983*
X03603Y02981*
X03603Y02979*
Y02978*
X03603Y02976*
X03602Y02973*
X03601Y02971*
X03598Y02967*
X03595Y02964*
X03593Y02963*
X0359Y02962*
X03587Y02961*
X03584Y02961*
X03583*
X03581Y02961*
X03578Y02962*
X03575Y02963*
X03572Y02964*
X03569Y02965*
X03567Y02967*
X03566Y02968*
X03566Y02969*
Y0297*
X0357Y02976*
X03586Y02973*
X03589Y02976*
Y02979*
X03589Y02979*
X03588Y0298*
X03587Y0298*
X03585Y02981*
X03581Y02983*
X03579Y02984*
X03577Y02984*
X03573Y02986*
X0357Y02987*
X03567Y02995*
Y02999*
Y03*
X03568Y03001*
X03569Y03003*
X0357Y03006*
X03572Y03008*
X03574Y03011*
X03577Y03012*
X03581Y03013*
X0359*
X03592Y03012*
G37*
G36*
X03064Y03014D02*
X03065Y03014D01*
X03066Y03013*
X03067Y03011*
X03068Y0301*
X03069Y03007*
X0307Y03004*
Y03004*
X0307Y03003*
X03069Y03002*
X03068Y03*
X03066Y02997*
X03065Y02996*
X03063Y02995*
X03058*
X03056Y02995*
X03055Y02996*
X03053Y02997*
X03051Y02999*
X0305Y03001*
X03049Y03004*
Y03005*
Y03006*
X0305Y03007*
X0305Y03008*
X03051Y0301*
X03052Y03012*
X03053Y03013*
X03055Y03014*
X03064*
X03064Y03014*
G37*
G36*
X03445Y0301D02*
Y03009D01*
Y03008*
X03444Y03007*
X03444Y03004*
X03444Y03002*
X03443Y02998*
X03442Y02994*
X0344Y02986*
X03438Y02977*
X03437Y02973*
X03436Y02969*
X03435Y02966*
X03434Y02964*
X03433Y02962*
X03432Y02962*
X03425*
X03425Y02962*
X03423Y02963*
X03422Y02965*
X03422Y02967*
X03421Y02969*
X0342Y02971*
X03419Y02974*
X03418Y02977*
X03417Y02981*
X03415Y02986*
X03414Y02991*
X03413*
Y02991*
X03413Y0299*
X03412Y02988*
X03412Y02987*
X03411Y02982*
X03409Y02976*
X03407Y02971*
X03406Y02967*
X03405Y02964*
X03404Y02963*
X03403Y02962*
X03402Y02962*
X03395*
X03394Y02963*
X03394Y02963*
X03393Y02964*
X03392Y02966*
X03392Y02968*
X03391Y0297*
X0339Y02973*
X03389Y02977*
X03388Y02981*
X03387Y02987*
X03386Y02993*
X03384Y03*
X03383Y03009*
Y0301*
X03386Y03013*
X0339*
X0339Y03012*
X03391Y03011*
X03392Y03009*
X03393Y03007*
X03394Y03006*
X03395Y03003*
X03396Y03*
X03396Y02997*
X03398Y02992*
X03398Y02988*
X03399Y02983*
X03401*
Y02983*
X03401Y02984*
X03401Y02986*
X03402Y02987*
X03403Y02992*
X03404Y02998*
X03406Y03003*
X03408Y03008*
X03409Y0301*
X0341Y03011*
X03411Y03012*
X03412Y03013*
X03416*
X03417Y03012*
X03418Y03011*
X03419Y03009*
X0342Y03007*
X03421Y03006*
X03422Y03003*
X03422Y03*
X03423Y02997*
X03425Y02992*
X03426Y02988*
X03427Y02983*
X03428*
Y02983*
X03429Y02984*
Y02986*
X03429Y02987*
X0343Y02992*
X03431Y02998*
X03433Y03003*
X03434Y03008*
X03435Y0301*
X03436Y03011*
X03437Y03012*
X03438Y03013*
X03442*
X03445Y0301*
G37*
G36*
X03203Y03046D02*
X03204Y03045D01*
X03207Y03045*
X0321Y03044*
X03212Y03043*
X03219Y0304*
X03222Y03038*
X03226Y03036*
X03228Y03033*
X03231Y0303*
X03234Y03026*
X03235Y03022*
X03236Y03018*
X03237Y03013*
Y03*
Y03*
Y02999*
X03236Y02997*
X03236Y02995*
X03235Y02992*
X03234Y02989*
X03233Y02986*
X03231Y02983*
X0323Y02979*
X03227Y02976*
X03224Y02973*
X03221Y0297*
X03218Y02968*
X03213Y02966*
X03208Y02965*
X03203Y02965*
X03193*
X03191Y02965*
X03189Y02965*
X03186Y02966*
X03183Y02967*
X0318Y02968*
X03176Y0297*
X03173Y02972*
X0317Y02975*
X03167Y02977*
X03164Y02981*
X03162Y02986*
X0316Y02991*
X03159Y02998*
X03158Y03004*
Y03005*
Y03006*
X03159Y03008*
X03159Y03011*
X0316Y03014*
X03161Y03018*
X03162Y03021*
X03164Y03025*
X03166Y03029*
X03169Y03033*
X03172Y03037*
X03176Y03039*
X03181Y03042*
X03187Y03044*
X03193Y03046*
X03201Y03046*
X03201*
X03203Y03046*
G37*
G36*
X02922D02*
X02926Y03045D01*
X0293Y03043*
X02935Y0304*
X02937Y03038*
X0294Y03036*
X02942Y03033*
X02944Y0303*
X02946Y03026*
X02948Y03022*
X02949Y0301*
Y03003*
X0295Y03002*
Y03*
X0295*
X02949Y03*
X02947Y03*
X02944Y02999*
X0294Y02999*
X02935Y02998*
X02929Y02998*
X02898*
X02899Y02997*
X02899Y02995*
X029Y02993*
X02903Y0299*
X02905Y02987*
X02908Y02985*
X02912Y02983*
X02918Y02983*
X02926*
X02945Y02988*
X02946Y02987*
Y02972*
Y02971*
X02946Y02971*
X02944Y02969*
X02942Y02968*
X02939Y02967*
X02936Y02966*
X02934Y02965*
X02931Y02965*
X02927Y02964*
X02923Y02964*
X02919Y02963*
X02913*
X02911Y02964*
X02909Y02964*
X02907Y02964*
X02903Y02965*
X029Y02967*
X02896Y02968*
X02892Y02969*
X02888Y02972*
X02884Y02974*
X0288Y02977*
X02877Y02981*
X02875Y02985*
X02872Y0299*
X02871Y02995*
X02871Y03*
Y03004*
Y03005*
Y03006*
X02871Y03008*
X02871Y0301*
X02872Y03013*
X02872Y03016*
X02873Y0302*
X02875Y03023*
X02877Y03027*
X02879Y0303*
X02882Y03034*
X02885Y03037*
X02889Y0304*
X02894Y03043*
X02899Y03045*
X02905Y03046*
X0292*
X02922Y03046*
G37*
G36*
X03563Y0301D02*
Y02965D01*
X03561Y02962*
X03555*
X03552Y02965*
Y0301*
X03555Y03013*
X03561*
X03563Y0301*
G37*
G36*
X03533Y03009D02*
Y02973D01*
X03547*
X03549Y0297*
Y02965*
X03547Y02962*
X03524*
X03524Y02962*
X03523Y02963*
X03522Y02964*
X03521Y02966*
X03521Y02968*
X0352Y0297*
Y03009*
X03524Y03013*
X03529*
X03533Y03009*
G37*
G36*
X03501Y0301D02*
Y02973D01*
X03515*
X03519Y02969*
Y02966*
X03515Y02962*
X03494*
X0349Y02966*
Y03009*
X03494Y03013*
X03499*
X03501Y0301*
G37*
G36*
X03469Y03012D02*
X0347Y03011D01*
X0347Y03011*
X03471Y03009*
X03472Y03007*
X03473Y03005*
X03474Y03002*
X03476Y02999*
X03478Y02994*
X0348Y02989*
X03481Y02983*
X03484Y02976*
X03486Y02969*
Y02965*
X03483Y02962*
X03479*
X03478Y02962*
X03477Y02963*
X03476Y02964*
X03475Y02966*
X03474Y02968*
X03474Y02972*
X03457*
X03456Y02971*
X03456Y02971*
X03455Y02969*
X03454Y02968*
X03453Y02965*
X03452Y02962*
X03446*
X03444Y02963*
X03444Y02963*
X03443Y02964*
X03442Y02965*
X03442Y02967*
Y02968*
X03443Y02969*
X03444Y02972*
X03444Y02975*
X03446Y02978*
X03447Y02982*
X0345Y0299*
X03453Y02998*
X03455Y03002*
X03456Y03006*
X03458Y03008*
X03459Y03011*
X0346Y03012*
X03461Y03013*
X03469*
X03469Y03012*
G37*
G36*
X03356Y03088D02*
X03358Y03088D01*
X0336Y03086*
X03363Y03084*
X03365Y03081*
X03366Y03079*
X03367Y03077*
X03367Y03074*
X03368Y03071*
Y0307*
X03367Y0307*
X03367Y03068*
X03366Y03066*
X03365Y03064*
X03363Y03061*
X03362Y03058*
X0336Y03054*
X03357Y03046*
X03352Y03037*
X03348Y03027*
X03343Y03016*
X03338Y03006*
X03333Y02995*
X03328Y02985*
X03324Y02975*
X03319Y02967*
X03317Y02963*
X03315Y02959*
X03313Y02956*
X03311Y02953*
X0331Y02951*
X03308Y02949*
X03301Y02948*
X03297*
X03296Y02949*
X03294Y02949*
X03292Y0295*
X03289Y02952*
X03287Y02955*
X03285Y02958*
X03283Y02963*
Y02966*
Y02967*
X03284Y02968*
X03284Y02969*
X03285Y02971*
X03286Y02974*
X03288Y02978*
X0329Y02983*
X03293Y0299*
X03295Y02994*
X03297Y02998*
X03299Y03003*
X03301Y03007*
X03304Y03013*
X03307Y03019*
X0331Y03025*
X03313Y03032*
X03317Y03039*
X0332Y03047*
X03324Y03055*
X03329Y03065*
X03333Y03074*
X03339Y03084*
X03339Y03085*
X03339Y03085*
X03342Y03086*
X03345Y03088*
X03347Y03089*
X03355*
X03356Y03088*
G37*
G36*
X03314D02*
X03315Y03088D01*
X03317Y03087*
X03319Y03085*
X0332Y03083*
X03322Y03081*
X03323Y03078*
X03324Y03075*
Y03072*
Y03071*
X03323Y0307*
X03323Y03069*
X03322Y03066*
X03321Y03063*
X03319Y03058*
X03317Y03053*
X03313Y03046*
X03312Y03042*
X0331Y03038*
X03308Y03033*
X03305Y03028*
X03302Y03022*
X033Y03016*
X03297Y0301*
X03293Y03003*
X0329Y02996*
X03286Y02988*
X03282Y02979*
X03277Y02971*
X03272Y02961*
X03267Y02951*
X03259Y02948*
X03253*
X03252Y02949*
X0325Y02949*
X03247Y02951*
X03245Y02952*
X03243Y02955*
X03241Y02958*
Y02966*
Y02967*
X03241Y02968*
X03242Y02969*
X03242Y02971*
X03243Y02974*
X03245Y02977*
X03247Y02983*
X0325Y02989*
X03251Y02992*
X03253Y02996*
X03255Y03*
X03257Y03005*
X03259Y0301*
X03262Y03015*
X03265Y03022*
X03267Y03028*
X03271Y03035*
X03274Y03042*
X03278Y0305*
X03282Y03058*
X03286Y03067*
X0329Y03076*
X03291Y03077*
X03291Y03078*
X03292Y0308*
X03293Y03081*
X03297Y03085*
X03299Y03087*
X03301Y03089*
X03314*
X03314Y03088*
G37*
%LNpongboy-2*%
%LPC*%
G36*
X03524Y03057D02*
X03522D01*
X03518Y03043*
X03529*
X03524Y03057*
G37*
G36*
X03446Y03059D02*
X03445D01*
X03441Y03043*
X0345*
X03446Y03059*
G37*
G36*
X03198Y03034D02*
X03197D01*
X03196Y03033*
X03193Y03033*
X03189Y03031*
X03186Y03028*
X03184Y03026*
X03183Y03024*
X03181Y03022*
X0318Y03019*
X03179Y03015*
X03178Y03011*
Y02999*
Y02999*
Y02998*
X03178Y02997*
X03179Y02996*
X0318Y02992*
X03181Y02988*
X03184Y02984*
X03187Y0298*
X03188Y02979*
X03191Y02978*
X03193Y02977*
X03196Y02977*
X03202*
X03204Y02977*
X03207Y02979*
X0321Y0298*
X03212Y02982*
X03214Y02984*
X03215Y02986*
X03216Y02988*
X03218Y02991*
X03218Y02995*
X03219Y02999*
X03219Y03003*
Y03004*
Y03005*
Y03006*
Y03007*
X03219Y03009*
X03218Y03014*
X03216Y03019*
X03214Y03025*
X03212Y03027*
X0321Y03029*
X03208Y03031*
X03205Y03033*
X03202Y03033*
X03198Y03034*
G37*
G36*
X02911Y03029D02*
X0291D01*
X02909Y03029*
X02908Y03029*
X02906Y03027*
X02904Y03026*
X02901Y03023*
X029Y03019*
X02898Y03014*
X029*
X02915Y03016*
X02923*
Y03017*
Y03017*
X02923Y03019*
X02922Y03021*
X02921Y03023*
X02919Y03025*
X02917Y03027*
X02914Y03029*
X02911Y03029*
G37*
G36*
X03465Y02999D02*
X03464D01*
X0346Y02983*
X03469*
X03465Y02999*
G37*
%LNpongboy-3*%
%LPD*%
G54D10*
X0Y00118D02*
D01*
X0Y00109*
X00001Y00101*
X00002Y00093*
X00004Y00085*
X00007Y00077*
X0001Y0007*
X00013Y00062*
X00017Y00055*
X00022Y00048*
X00027Y00042*
X00033Y00036*
X00039Y0003*
X00045Y00025*
X00052Y0002*
X00059Y00015*
X00066Y00011*
X00073Y00008*
X00081Y00005*
X00089Y00003*
X00097Y00001*
X00105Y0*
X00113Y0*
X00118Y0*
X03819D02*
D01*
X03827Y0*
X03835Y00001*
X03843Y00002*
X03851Y00004*
X03859Y00007*
X03867Y0001*
X03874Y00013*
X03881Y00017*
X03888Y00022*
X03894Y00027*
X039Y00033*
X03906Y00039*
X03912Y00045*
X03916Y00051*
X03921Y00058*
X03925Y00066*
X03928Y00073*
X03931Y00081*
X03933Y00089*
X03935Y00097*
X03936Y00105*
X03936Y00113*
X03937Y00117*
Y03031D02*
D01*
X03936Y03039*
X03935Y03047*
X03934Y03056*
X03932Y03064*
X03929Y03071*
X03926Y03079*
X03923Y03086*
X03919Y03094*
X03914Y031*
X03909Y03107*
X03903Y03113*
X03897Y03119*
X03891Y03124*
X03884Y03129*
X03877Y03133*
X0387Y03137*
X03863Y03141*
X03855Y03143*
X03847Y03146*
X03839Y03147*
X03831Y03148*
X03823Y03149*
X03818Y03149*
X00118D02*
D01*
X00109Y03149*
X00101Y03148*
X00093Y03147*
X00085Y03145*
X00077Y03142*
X0007Y03139*
X00062Y03135*
X00055Y03131*
X00048Y03127*
X00042Y03121*
X00036Y03116*
X0003Y0311*
X00025Y03104*
X0002Y03097*
X00015Y0309*
X00011Y03083*
X00008Y03075*
X00005Y03067*
X00003Y0306*
X00001Y03052*
X0Y03043*
X0Y03035*
X0Y03031*
X00118Y0D02*
X03819D01*
X03937Y00117D02*
Y03031D01*
X00118Y03149D02*
X03818D01*
X0Y00118D02*
Y03031D01*
G54D13*
X00295Y02672D02*
X00285Y02682D01*
X00265*
X00255Y02672*
Y02632*
X00265Y02622*
X00285*
X00295Y02632*
Y02652*
X00275*
X00315Y02622D02*
Y02682D01*
X00355Y02622*
Y02682*
X00375D02*
Y02622D01*
X00405*
X00415Y02632*
Y02672*
X00405Y02682*
X00375*
X00114Y01933D02*
Y01874D01*
X00144*
X00154Y01884*
Y01894*
X00144Y01904*
X00114*
X00144*
X00154Y01914*
Y01924*
X00144Y01933*
X00114*
X00214Y01924D02*
X00204Y01933D01*
X00184*
X00174Y01924*
Y01884*
X00184Y01874*
X00204*
X00214Y01884*
X00234Y01933D02*
Y01874D01*
Y01894*
X00274Y01933*
X00244Y01904*
X00274Y01874*
X00294Y01933D02*
Y01874D01*
X00334*
X00394Y01924D02*
X00384Y01933D01*
X00364*
X00354Y01924*
Y01884*
X00364Y01874*
X00384*
X00394Y01884*
Y01904*
X00374*
X00414Y01933D02*
Y01874D01*
Y01904*
X00454*
Y01933*
Y01874*
X00474Y01933D02*
X00514D01*
X00494*
Y01874*
X00625Y02401D02*
Y02441D01*
X00645Y02461*
X00665Y02441*
Y02401*
Y02431*
X00625*
X00685Y02441D02*
Y02411D01*
X00695Y02401*
X00725*
Y02441*
X00785Y02461D02*
Y02401D01*
X00755*
X00745Y02411*
Y02431*
X00755Y02441*
X00785*
X00805Y02401D02*
X00825D01*
X00815*
Y02441*
X00805*
X00865Y02401D02*
X00885D01*
X00895Y02411*
Y02431*
X00885Y02441*
X00865*
X00855Y02431*
Y02411*
X00865Y02401*
X0048Y02682D02*
Y02622D01*
X0052*
X0058Y02672D02*
X0057Y02682D01*
X0055*
X0054Y02672*
Y02632*
X0055Y02622*
X0057*
X0058Y02632*
Y02652*
X0056*
X006Y02682D02*
Y02622D01*
Y02652*
X0064*
Y02682*
Y02622*
X0066Y02682D02*
X007D01*
X0068*
Y02622*
X01838Y02953D02*
X01878D01*
X01858*
Y02893*
X01898Y02953D02*
X01938Y02893D01*
Y02953D02*
X01898Y02893D01*
X01838Y03035D02*
Y03095D01*
X01868*
X01878Y03085*
Y03065*
X01868Y03055*
X01838*
X01858D02*
X01878Y03035D01*
X01898Y03095D02*
X01938Y03035D01*
Y03095D02*
X01898Y03035D01*
X03393Y0012D02*
X03433D01*
X03413Y0014D02*
Y001D01*
X03453Y0014D02*
X03463Y0015D01*
X03483*
X03493Y0014*
Y0013*
X03483Y0012*
X03473*
X03483*
X03493Y0011*
Y001*
X03483Y0009*
X03463*
X03453Y001*
X03513Y0015D02*
Y0011D01*
X03533Y0009*
X03553Y0011*
Y0015*
X02992Y00136D02*
X02982Y00146D01*
X02962*
X02952Y00136*
Y00096*
X02962Y00086*
X02982*
X02992Y00096*
Y00116*
X02972*
X03012Y00086D02*
Y00146D01*
X03052Y00086*
Y00146*
X03072D02*
Y00086D01*
X03102*
X03112Y00096*
Y00136*
X03102Y00146*
X03072*
X03216Y02716D02*
Y01259D01*
X03287*
Y02716D02*
Y01259D01*
X03216Y02716D02*
X03287D01*
G54D14*
X00622Y017D03*
Y01622D03*
X03011Y00496D03*
Y00417D03*
G54D15*
X03326Y00118D03*
X03188D03*
X00236Y02421D03*
Y02263D03*
G54D16*
X03072Y00236D03*
X02982Y00198D03*
Y00273D03*
G54D17*
X00338Y01412D03*
Y01462D03*
X00288Y01412D03*
Y01362D03*
X00338D03*
X00288Y01462D03*
G54D18*
X02125Y01968D02*
Y02208D01*
X02114Y01297D02*
X0274Y00671D01*
X02114Y01713D02*
Y01956D01*
Y01468D02*
Y01713D01*
Y01956D02*
X02125Y01968D01*
X00935Y02901D02*
X01157D01*
X00933Y02903D02*
X00935Y02901D01*
X02114Y01297D02*
Y01468D01*
X01942D02*
X02114D01*
X01789Y01622D02*
X01942Y01468D01*
X01476Y01622D02*
X01789D01*
X01157Y02304D02*
Y02901D01*
Y0207D02*
Y02304D01*
X00531Y02303D02*
X01155D01*
X01157Y02901D02*
X01389D01*
X01157Y0207D02*
X01476Y01751D01*
X01389Y02901D02*
X0183Y0246D01*
X00622Y01622D02*
X01476D01*
Y01751*
X0282Y00669D02*
X02933D01*
X03011Y0059*
Y00496D02*
Y0059D01*
X03015Y00492D02*
X03188D01*
X03326Y00354*
Y00118D02*
Y00354D01*
G54D19*
X0185Y01783D02*
X02077Y0201D01*
Y02478D02*
X0248Y02881D01*
X02077Y0201D02*
Y02478D01*
X02051Y02106D02*
Y0257D01*
X01771Y01826D02*
X02051Y02106D01*
X02598Y0274D02*
Y02881D01*
X01263Y02381D02*
X01641D01*
X01751*
X01641Y01891D02*
Y02381D01*
Y01891D02*
X01751Y01781D01*
Y01712D02*
Y01781D01*
X03187Y00198D02*
X03246D01*
X02982D02*
X03187D01*
X03188Y00118D02*
Y00196D01*
X03187Y00198D02*
X03188Y00196D01*
X01751Y01712D02*
X01929Y01535D01*
X01118Y00671D02*
X01186Y00602D01*
X01118Y00236D02*
X01186Y00304D01*
X01929Y01535D02*
X01988D01*
X0274Y00671D02*
X02818D01*
X01155Y02303D02*
X01157Y02304D01*
X02055Y02925D02*
X02312D01*
X02356Y02881*
Y02875D02*
Y02881D01*
X02051Y0257D02*
X02356Y02875D01*
X02294Y03066D02*
X0248Y02881D01*
X02055Y03066D02*
X02294D01*
X00534Y017D02*
X00622D01*
X00511Y01677D02*
X00534Y017D01*
X005Y01677D02*
X00511D01*
X02818Y00671D02*
X0282Y00669D01*
X03246Y00198D02*
X03248Y002D01*
X03011Y00496D02*
X03015Y00492D01*
X02982Y00273D02*
Y00387D01*
X02994Y00399*
Y00404*
X03006Y00417*
X03011*
X02818Y00236D02*
X03072D01*
G54D20*
X01186Y00304D02*
Y00602D01*
G54D21*
X00618Y01618D02*
X00622Y01622D01*
X00393Y01618D02*
X00618D01*
X00353Y01577D02*
X00393Y01618D01*
X00353Y015D02*
Y01577D01*
X00341Y01488D02*
X00353Y015D01*
X00341Y01464D02*
Y01488D01*
X00338Y01462D02*
X00341Y01464D01*
X00321Y01298D02*
X00352Y01267D01*
X00288Y01362D02*
X00321Y01329D01*
Y01298D02*
Y01329D01*
X00281Y01498D02*
Y01601D01*
Y01498D02*
X00287Y01492D01*
Y01463D02*
Y01492D01*
Y01463D02*
X00288Y01462D01*
X00352Y01267D02*
X005D01*
X00378Y01452D02*
X00495D01*
X005Y01456*
X00338Y01412D02*
X00378Y01452D01*
X00281Y01601D02*
X00356Y01677D01*
X005*
X00071Y01449D02*
X00251D01*
X0007Y01448D02*
X00071Y01449D01*
X00251D02*
X00288Y01412D01*
G54D22*
X03484Y02708D02*
Y02787D01*
X03425*
Y02748*
Y02787*
X03366*
X03444Y02669D02*
X03366D01*
X03405*
X03425Y02649*
X03444Y02629*
Y0261*
Y02531D02*
Y02492D01*
X03425Y02472*
X03366*
Y02531*
X03385Y02551*
X03405Y02531*
Y02472*
X03366Y02433D02*
X03444D01*
Y02374*
X03425Y02354*
X03366*
X03444Y02236D02*
Y02295D01*
X03425Y02315*
X03385*
X03366Y02295*
Y02236*
Y02138D02*
Y02177D01*
X03385Y02197*
X03425*
X03444Y02177*
Y02138*
X03425Y02118*
X03405*
Y02197*
X03366Y02078D02*
Y02039D01*
Y02059*
X03484*
Y02078*
X03366Y01921D02*
Y0196D01*
X03385Y0198*
X03425*
X03444Y0196*
Y01921*
X03425Y01901*
X03405*
Y0198*
X03464Y01842D02*
X03444D01*
Y01862*
Y01823*
Y01842*
X03385*
X03366Y01823*
X03464Y01567D02*
X03484Y01587D01*
Y01626*
X03464Y01646*
X03444*
X03425Y01626*
Y01587*
X03405Y01567*
X03385*
X03366Y01587*
Y01626*
X03385Y01646*
X03444Y01508D02*
Y01468D01*
X03425Y01449*
X03366*
Y01508*
X03385Y01527*
X03405Y01508*
Y01449*
X03366Y01409D02*
X03444D01*
Y0139*
X03425Y0137*
X03366*
X03425*
X03444Y0135*
X03425Y01331*
X03366*
X03444Y01291D02*
X03385D01*
X03366Y01272*
Y01213*
X03346*
X03326Y01232*
Y01252*
X03366Y01213D02*
X03444D01*
X03562Y02708D02*
Y02787D01*
X03641Y02708*
X03661*
X03681Y02728*
Y02767*
X03661Y02787*
X03681Y0259D02*
X03661Y02629D01*
X03622Y02669*
X03582*
X03562Y02649*
Y0261*
X03582Y0259*
X03602*
X03622Y0261*
Y02669*
X03562Y02551D02*
X03582D01*
Y02531*
X03562*
Y02551*
X03661Y02452D02*
X03681Y02433D01*
Y02393*
X03661Y02374*
X03582*
X03562Y02393*
Y02433*
X03582Y02452*
X03661*
Y02334D02*
X03681Y02315D01*
Y02275*
X03661Y02256*
X03641*
X03622Y02275*
X03602Y02256*
X03582*
X03562Y02275*
Y02315*
X03582Y02334*
X03602*
X03622Y02315*
X03641Y02334*
X03661*
X03622Y02315D02*
Y02275D01*
X03562Y02216D02*
X03582D01*
Y02197*
X03562*
Y02216*
Y02039D02*
Y02118D01*
X03641Y02039*
X03661*
X03681Y02059*
Y02098*
X03661Y02118*
Y02D02*
X03681Y0198D01*
Y01941*
X03661Y01921*
X03582*
X03562Y01941*
Y0198*
X03582Y02*
X03661*
X03562Y01803D02*
Y01882D01*
X03641Y01803*
X03661*
X03681Y01823*
Y01862*
X03661Y01882*
X03562Y01764D02*
Y01724D01*
Y01744*
X03681*
X03661Y01764*
X03681Y01488D02*
X03602D01*
X03562Y01448*
X03602Y01409*
X03681*
X03562Y01311D02*
Y0135D01*
X03582Y0137*
X03622*
X03641Y0135*
Y01311*
X03622Y01291*
X03602*
Y0137*
X03641Y01252D02*
X03562D01*
X03602*
X03622Y01232*
X03641Y01212*
Y01193*
X03562Y01015D02*
Y00976D01*
Y00996*
X03681*
X03661Y01015*
X03562Y00917D02*
X03582D01*
Y00897*
X03562*
Y00917*
X03661Y00819D02*
X03681Y00799D01*
Y0076*
X03661Y0074*
X03582*
X03562Y0076*
Y00799*
X03582Y00819*
X03661*
X03759Y02787D02*
X03877D01*
Y02728*
X03858Y02708*
X03818*
X03799Y02728*
Y02787*
X03759Y02649D02*
Y0261D01*
X03779Y0259*
X03818*
X03838Y0261*
Y02649*
X03818Y02669*
X03779*
X03759Y02649*
Y02551D02*
X03838D01*
Y02492*
X03818Y02472*
X03759*
X0372Y02393D02*
Y02374D01*
X0374Y02354*
X03838*
Y02413*
X03818Y02433*
X03779*
X03759Y02413*
Y02354*
X03877Y02315D02*
X03759D01*
Y02256*
X03779Y02236*
X03799*
X03818Y02256*
Y02315*
Y02256*
X03838Y02236*
X03858*
X03877Y02256*
Y02315*
X03759Y02177D02*
Y02138D01*
X03779Y02118*
X03818*
X03838Y02138*
Y02177*
X03818Y02197*
X03779*
X03759Y02177*
X03838Y02078D02*
X03779D01*
X03759Y02059*
Y02*
X0374*
X0372Y02019*
Y02039*
X03759Y02D02*
X03838D01*
X03759Y0196D02*
X03779D01*
Y01941*
X03759*
Y0196*
Y01862D02*
X03877D01*
Y01803*
X03858Y01783*
X03818*
X03799Y01803*
Y01862*
X03838Y01665D02*
Y01724D01*
X03818Y01744*
X03779*
X03759Y01724*
Y01665*
X03877Y01626D02*
X03759D01*
Y01567*
X03779Y01547*
X03799*
X03818*
X03838Y01567*
Y01626*
X03877Y01508D02*
X03759D01*
Y01449*
X03779Y01429*
X03858*
X03877Y01449*
Y01508*
X03759Y0137D02*
Y01331D01*
X03779Y01311*
X03818*
X03838Y01331*
Y0137*
X03818Y0139*
X03779*
X03759Y0137*
X03838Y01193D02*
Y01252D01*
X03818Y01272*
X03779*
X03759Y01252*
Y01193*
G54D23*
X00334Y02763D03*
X00767Y02543D03*
X00313Y02007D03*
X02055Y02925D03*
Y03066D03*
X0059Y02763D03*
G54D24*
X02362Y02881D03*
X0248D03*
G54D25*
X02598Y02881D03*
G54D26*
X0248Y03051D03*
G54D27*
X01196Y00671D03*
X0274D03*
X01338D03*
X02598D03*
X0274Y00236D03*
X01196D03*
X02598D03*
X01338D03*
G54D28*
X00931Y01157D03*
X03244D03*
X00931Y02779D03*
G54D29*
X00213Y01387D03*
X00413D03*
X00213Y01512D03*
X00413D03*
G54D30*
X00313Y01512D03*
X00353Y01312D03*
X00273D03*
G54D31*
X0374Y00196D03*
Y02952D03*
X00196D03*
X00196Y00196D03*
G54D32*
X0059Y03001D03*
Y02903D03*
G54D33*
X02125Y02208D03*
X02114Y01713D03*
X02598Y0274D03*
X00933Y02903D03*
X01263Y02381D03*
X01751D03*
X01771Y01826D03*
X0185Y01783D03*
X01988Y01535D03*
X00531Y02303D03*
X0183Y0246D03*
X005Y01677D03*
Y01267D03*
Y01456D03*
X0007Y01448D03*
X01751Y01712D03*
X01476Y01751D03*
X03248Y002D03*
M02*