%FSTAX23Y23*%
%MOIN*%
%SFA1B1*%

%IPPOS*%
%ADD10C,0.005905*%
%ADD11C,0.006000*%
%ADD12C,0.003937*%
%ADD13C,0.010000*%
%LNpongboy-1*%
%LPD*%
G54D10*
X00421Y02775D02*
D01*
X00421Y02778*
X0042Y02782*
X0042Y02785*
X00419Y02788*
X00418Y02791*
X00417Y02794*
X00415Y02797*
X00414Y028*
X00412Y02803*
X0041Y02805*
X00408Y02808*
X00405Y0281*
X00403Y02812*
X004Y02814*
X00397Y02816*
X00394Y02817*
X00391Y02819*
X00388Y0282*
X00385Y02821*
X00382Y02821*
X00378Y02822*
X00375Y02822*
X00374Y02822*
X00248Y02751D02*
D01*
X00248Y02748*
X00248Y02745*
X00249Y02741*
X00249Y02738*
X0025Y02735*
X00252Y02732*
X00253Y02729*
X00255Y02726*
X00257Y02724*
X00259Y02721*
X00261Y02718*
X00263Y02716*
X00266Y02714*
X00268Y02712*
X00271Y0271*
X00274Y02709*
X00277Y02707*
X0028Y02706*
X00283Y02705*
X00287Y02705*
X0029Y02704*
X00293Y02704*
X00295Y02704*
X00374D02*
D01*
X00377Y02704*
X0038Y02705*
X00383Y02705*
X00387Y02706*
X0039Y02707*
X00393Y02708*
X00396Y0271*
X00399Y02711*
X00401Y02713*
X00404Y02715*
X00406Y02717*
X00409Y0272*
X00411Y02722*
X00413Y02725*
X00414Y02728*
X00416Y02731*
X00417Y02734*
X00418Y02737*
X00419Y0274*
X0042Y02743*
X00421Y02746*
X00421Y0275*
X00421Y02751*
X00295Y02822D02*
D01*
X00291Y02822*
X00288Y02822*
X00285Y02821*
X00282Y0282*
X00279Y02819*
X00276Y02818*
X00273Y02817*
X0027Y02815*
X00267Y02813*
X00264Y02811*
X00262Y02809*
X0026Y02807*
X00258Y02804*
X00256Y02801*
X00254Y02799*
X00252Y02796*
X00251Y02793*
X0025Y0279*
X00249Y02786*
X00248Y02783*
X00248Y0278*
X00248Y02777*
X00248Y02775*
X00425Y02342D02*
D01*
X00424Y02355*
X00423Y02368*
X00421Y02381*
X00417Y02394*
X00413Y02407*
X00408Y02419*
X00403Y02431*
X00396Y02442*
X00389Y02453*
X0038Y02463*
X00372Y02473*
X00362Y02482*
X00352Y02491*
X00341Y02499*
X0033Y02506*
X00319Y02512*
X00307Y02517*
X00294Y02522*
X00281Y02525*
X00269Y02528*
X00255Y0253*
X00242Y02531*
X00229*
X00216Y0253*
X00203Y02528*
X0019Y02525*
X00177Y02522*
X00165Y02517*
X00153Y02512*
X00141Y02506*
X0013Y02499*
X00119Y02491*
X00109Y02482*
X001Y02473*
X00091Y02463*
X00083Y02453*
X00075Y02442*
X00069Y02431*
X00063Y02419*
X00058Y02407*
X00054Y02394*
X00051Y02381*
X00049Y02368*
X00047Y02355*
X00047Y02342*
X00047Y02329*
X00049Y02316*
X00051Y02303*
X00054Y0229*
X00058Y02277*
X00063Y02265*
X00069Y02253*
X00075Y02242*
X00083Y02231*
X00091Y02221*
X001Y02211*
X00109Y02202*
X00119Y02193*
X0013Y02185*
X00141Y02178*
X00153Y02172*
X00165Y02167*
X00177Y02162*
X0019Y02159*
X00203Y02156*
X00216Y02154*
X00229Y02153*
X00242*
X00255Y02154*
X00269Y02156*
X00281Y02159*
X00294Y02162*
X00307Y02167*
X00319Y02172*
X0033Y02178*
X00341Y02185*
X00352Y02193*
X00362Y02202*
X00372Y02211*
X0038Y02221*
X00389Y02231*
X00396Y02242*
X00403Y02253*
X00408Y02265*
X00413Y02277*
X00417Y0229*
X00421Y02303*
X00423Y02316*
X00424Y02329*
X00425Y02342*
X00854Y02555D02*
D01*
X00854Y02558*
X00853Y02561*
X00853Y02564*
X00852Y02568*
X00851Y02571*
X0085Y02574*
X00848Y02577*
X00847Y0258*
X00845Y02582*
X00843Y02585*
X00841Y02587*
X00838Y0259*
X00836Y02592*
X00833Y02594*
X0083Y02596*
X00827Y02597*
X00824Y02598*
X00821Y026*
X00818Y026*
X00815Y02601*
X00812Y02602*
X00808Y02602*
X00807Y02602*
X00681Y02531D02*
D01*
X00681Y02528*
X00681Y02524*
X00682Y02521*
X00682Y02518*
X00683Y02515*
X00685Y02512*
X00686Y02509*
X00688Y02506*
X0069Y02503*
X00692Y02501*
X00694Y02498*
X00696Y02496*
X00699Y02494*
X00701Y02492*
X00704Y0249*
X00707Y02489*
X0071Y02487*
X00713Y02486*
X00716Y02485*
X0072Y02484*
X00723Y02484*
X00726Y02484*
X00728Y02484*
X00807D02*
D01*
X0081Y02484*
X00813Y02484*
X00816Y02485*
X0082Y02486*
X00823Y02487*
X00826Y02488*
X00829Y02489*
X00832Y02491*
X00834Y02493*
X00837Y02495*
X00839Y02497*
X00842Y02499*
X00844Y02502*
X00846Y02505*
X00848Y02507*
X00849Y0251*
X0085Y02513*
X00852Y02516*
X00852Y0252*
X00853Y02523*
X00854Y02526*
X00854Y02529*
X00854Y02531*
X00728Y02602D02*
D01*
X00725Y02602*
X00721Y02601*
X00718Y02601*
X00715Y026*
X00712Y02599*
X00709Y02598*
X00706Y02596*
X00703Y02595*
X007Y02593*
X00697Y02591*
X00695Y02589*
X00693Y02586*
X00691Y02584*
X00689Y02581*
X00687Y02578*
X00685Y02575*
X00684Y02572*
X00683Y02569*
X00682Y02566*
X00681Y02563*
X00681Y0256*
X00681Y02556*
X00681Y02555*
X004Y02019D02*
D01*
X004Y02022*
X00399Y02026*
X00399Y02029*
X00398Y02032*
X00397Y02035*
X00396Y02038*
X00394Y02041*
X00393Y02044*
X00391Y02047*
X00389Y0205*
X00386Y02052*
X00384Y02054*
X00382Y02056*
X00379Y02058*
X00376Y0206*
X00373Y02062*
X0037Y02063*
X00367Y02064*
X00364Y02065*
X00361Y02066*
X00357Y02066*
X00354Y02066*
X00352Y02066*
X00226Y01996D02*
D01*
X00227Y01992*
X00227Y01989*
X00228Y01986*
X00228Y01983*
X00229Y01979*
X00231Y01976*
X00232Y01973*
X00234Y01971*
X00235Y01968*
X00238Y01965*
X0024Y01963*
X00242Y0196*
X00245Y01958*
X00247Y01956*
X0025Y01955*
X00253Y01953*
X00256Y01952*
X00259Y01951*
X00262Y0195*
X00266Y01949*
X00269Y01949*
X00272Y01948*
X00274Y01948*
X00352D02*
D01*
X00356Y01948*
X00359Y01949*
X00362Y01949*
X00365Y0195*
X00369Y01951*
X00372Y01952*
X00375Y01954*
X00377Y01955*
X0038Y01957*
X00383Y01959*
X00385Y01962*
X00388Y01964*
X0039Y01966*
X00392Y01969*
X00393Y01972*
X00395Y01975*
X00396Y01978*
X00397Y01981*
X00398Y01984*
X00399Y01987*
X00399Y01991*
X004Y01994*
X004Y01996*
X00274Y02066D02*
D01*
X0027Y02066*
X00267Y02066*
X00264Y02065*
X00261Y02065*
X00258Y02064*
X00254Y02062*
X00252Y02061*
X00249Y02059*
X00246Y02057*
X00243Y02055*
X00241Y02053*
X00239Y02051*
X00236Y02048*
X00235Y02046*
X00233Y02043*
X00231Y0204*
X0023Y02037*
X00229Y02034*
X00228Y02031*
X00227Y02027*
X00227Y02024*
X00226Y02021*
X00226Y02019*
X01968Y02913D02*
D01*
X01968Y0291*
X01968Y02906*
X01969Y02903*
X0197Y029*
X01971Y02897*
X01972Y02894*
X01974Y02891*
X01975Y02888*
X01977Y02885*
X01979Y02883*
X01981Y0288*
X01984Y02878*
X01986Y02876*
X01989Y02874*
X01992Y02872*
X01995Y0287*
X01998Y02869*
X02001Y02868*
X02004Y02867*
X02007Y02866*
X0201Y02866*
X02014Y02866*
X02015Y02866*
X02141Y02937D02*
D01*
X02141Y0294*
X02141Y02943*
X0214Y02946*
X02139Y0295*
X02138Y02953*
X02137Y02956*
X02136Y02959*
X02134Y02962*
X02132Y02964*
X0213Y02967*
X02128Y02969*
X02126Y02972*
X02123Y02974*
X0212Y02976*
X02118Y02977*
X02115Y02979*
X02112Y0298*
X02109Y02981*
X02105Y02982*
X02102Y02983*
X02099Y02983*
X02096Y02984*
X02094Y02984*
X02015D02*
D01*
X02012Y02984*
X02009Y02983*
X02005Y02983*
X02002Y02982*
X01999Y02981*
X01996Y0298*
X01993Y02978*
X0199Y02977*
X01987Y02975*
X01985Y02973*
X01982Y0297*
X0198Y02968*
X01978Y02966*
X01976Y02963*
X01974Y0296*
X01973Y02957*
X01971Y02954*
X0197Y02951*
X01969Y02948*
X01969Y02945*
X01968Y02941*
X01968Y02938*
X01968Y02937*
X02094Y02866D02*
D01*
X02097Y02866*
X02101Y02866*
X02104Y02867*
X02107Y02867*
X0211Y02868*
X02113Y0287*
X02116Y02871*
X02119Y02873*
X02122Y02875*
X02124Y02877*
X02127Y02879*
X02129Y02881*
X02131Y02884*
X02133Y02886*
X02135Y02889*
X02136Y02892*
X02138Y02895*
X02139Y02898*
X0214Y02901*
X02141Y02905*
X02141Y02908*
X02141Y02911*
X02141Y02913*
Y03078D02*
D01*
X02141Y03082*
X02141Y03085*
X0214Y03088*
X02139Y03091*
X02138Y03094*
X02137Y03097*
X02136Y031*
X02134Y03103*
X02132Y03106*
X0213Y03109*
X02128Y03111*
X02126Y03113*
X02123Y03115*
X0212Y03117*
X02118Y03119*
X02115Y03121*
X02112Y03122*
X02109Y03123*
X02105Y03124*
X02102Y03125*
X02099Y03125*
X02096Y03125*
X02094Y03125*
X01968Y03055D02*
D01*
X01968Y03051*
X01968Y03048*
X01969Y03045*
X0197Y03042*
X01971Y03038*
X01972Y03035*
X01974Y03032*
X01975Y0303*
X01977Y03027*
X01979Y03024*
X01981Y03022*
X01984Y0302*
X01986Y03017*
X01989Y03015*
X01992Y03014*
X01995Y03012*
X01998Y03011*
X02001Y0301*
X02004Y03009*
X02007Y03008*
X0201Y03008*
X02014Y03007*
X02015Y03007*
X02094D02*
D01*
X02097Y03007*
X02101Y03008*
X02104Y03008*
X02107Y03009*
X0211Y0301*
X02113Y03011*
X02116Y03013*
X02119Y03015*
X02122Y03016*
X02124Y03018*
X02127Y03021*
X02129Y03023*
X02131Y03026*
X02133Y03028*
X02135Y03031*
X02136Y03034*
X02138Y03037*
X02139Y0304*
X0214Y03043*
X02141Y03046*
X02141Y0305*
X02141Y03053*
X02141Y03055*
X02015Y03125D02*
D01*
X02012Y03125*
X02009Y03125*
X02005Y03124*
X02002Y03124*
X01999Y03123*
X01996Y03121*
X01993Y0312*
X0199Y03118*
X01987Y03116*
X01985Y03114*
X01982Y03112*
X0198Y0311*
X01978Y03107*
X01976Y03105*
X01974Y03102*
X01973Y03099*
X01971Y03096*
X0197Y03093*
X01969Y0309*
X01969Y03086*
X01968Y03083*
X01968Y0308*
X01968Y03078*
X00677Y02775D02*
D01*
X00677Y02778*
X00676Y02782*
X00676Y02785*
X00675Y02788*
X00674Y02791*
X00673Y02794*
X00671Y02797*
X00669Y028*
X00668Y02803*
X00666Y02805*
X00663Y02808*
X00661Y0281*
X00659Y02812*
X00656Y02814*
X00653Y02816*
X0065Y02818*
X00647Y02819*
X00644Y0282*
X00641Y02821*
X00638Y02822*
X00634Y02822*
X00631Y02822*
X00629Y02822*
X00503Y02751D02*
D01*
X00504Y02748*
X00504Y02745*
X00504Y02742*
X00505Y02738*
X00506Y02735*
X00508Y02732*
X00509Y02729*
X00511Y02726*
X00512Y02724*
X00514Y02721*
X00517Y02719*
X00519Y02716*
X00522Y02714*
X00524Y02712*
X00527Y02711*
X0053Y02709*
X00533Y02708*
X00536Y02707*
X00539Y02706*
X00542Y02705*
X00546Y02704*
X00549Y02704*
X00551Y02704*
X00629D02*
D01*
X00633Y02704*
X00636Y02705*
X00639Y02705*
X00642Y02706*
X00646Y02707*
X00649Y02708*
X00652Y0271*
X00654Y02711*
X00657Y02713*
X0066Y02715*
X00662Y02717*
X00665Y0272*
X00667Y02722*
X00669Y02725*
X0067Y02728*
X00672Y02731*
X00673Y02734*
X00674Y02737*
X00675Y0274*
X00676Y02743*
X00676Y02747*
X00677Y0275*
X00677Y02751*
X00551Y02822D02*
D01*
X00547Y02822*
X00544Y02822*
X00541Y02821*
X00538Y02821*
X00535Y02819*
X00531Y02818*
X00529Y02817*
X00526Y02815*
X00523Y02813*
X0052Y02811*
X00518Y02809*
X00516Y02807*
X00513Y02804*
X00512Y02802*
X0051Y02799*
X00508Y02796*
X00507Y02793*
X00506Y0279*
X00505Y02787*
X00504Y02783*
X00504Y0278*
X00503Y02777*
X00503Y02775*
X03854Y00196D02*
D01*
X03854Y00204*
X03853Y00212*
X03851Y0022*
X03849Y00228*
X03847Y00235*
X03844Y00243*
X0384Y0025*
X03836Y00257*
X03832Y00263*
X03827Y0027*
X03822Y00276*
X03816Y00281*
X0381Y00286*
X03804Y00291*
X03797Y00295*
X0379Y00299*
X03782Y00302*
X03775Y00305*
X03767Y00307*
X03759Y00309*
X03752Y0031*
X03744Y0031*
X03736*
X03728Y0031*
X0372Y00309*
X03712Y00307*
X03704Y00305*
X03697Y00302*
X0369Y00299*
X03683Y00295*
X03676Y00291*
X03669Y00286*
X03663Y00281*
X03658Y00276*
X03652Y0027*
X03647Y00263*
X03643Y00257*
X03639Y0025*
X03635Y00243*
X03632Y00235*
X0363Y00228*
X03628Y0022*
X03627Y00212*
X03626Y00204*
X03625Y00196*
X03626Y00188*
X03627Y0018*
X03628Y00173*
X0363Y00165*
X03632Y00157*
X03635Y0015*
X03639Y00143*
X03643Y00136*
X03647Y00129*
X03652Y00123*
X03658Y00117*
X03663Y00112*
X03669Y00106*
X03676Y00102*
X03683Y00097*
X0369Y00094*
X03697Y0009*
X03704Y00088*
X03712Y00086*
X0372Y00084*
X03728Y00083*
X03736Y00082*
X03744*
X03752Y00083*
X03759Y00084*
X03767Y00086*
X03775Y00088*
X03782Y0009*
X0379Y00094*
X03797Y00097*
X03804Y00102*
X0381Y00106*
X03816Y00112*
X03822Y00117*
X03827Y00123*
X03832Y00129*
X03836Y00136*
X0384Y00143*
X03844Y0015*
X03847Y00157*
X03849Y00165*
X03851Y00173*
X03853Y0018*
X03854Y00188*
X03854Y00196*
Y02952D02*
D01*
X03854Y0296*
X03853Y02968*
X03851Y02976*
X03849Y02984*
X03847Y02991*
X03844Y02999*
X0384Y03006*
X03836Y03013*
X03832Y03019*
X03827Y03026*
X03822Y03032*
X03816Y03037*
X0381Y03042*
X03804Y03047*
X03797Y03051*
X0379Y03055*
X03782Y03058*
X03775Y03061*
X03767Y03063*
X03759Y03065*
X03752Y03066*
X03744Y03066*
X03736*
X03728Y03066*
X0372Y03065*
X03712Y03063*
X03704Y03061*
X03697Y03058*
X0369Y03055*
X03683Y03051*
X03676Y03047*
X03669Y03042*
X03663Y03037*
X03658Y03032*
X03652Y03026*
X03647Y03019*
X03643Y03013*
X03639Y03006*
X03635Y02999*
X03632Y02991*
X0363Y02984*
X03628Y02976*
X03627Y02968*
X03626Y0296*
X03625Y02952*
X03626Y02944*
X03627Y02936*
X03628Y02929*
X0363Y02921*
X03632Y02913*
X03635Y02906*
X03639Y02899*
X03643Y02892*
X03647Y02885*
X03652Y02879*
X03658Y02873*
X03663Y02867*
X03669Y02862*
X03676Y02858*
X03683Y02853*
X0369Y0285*
X03697Y02846*
X03704Y02844*
X03712Y02841*
X0372Y0284*
X03728Y02839*
X03736Y02838*
X03744*
X03752Y02839*
X03759Y0284*
X03767Y02841*
X03775Y02844*
X03782Y02846*
X0379Y0285*
X03797Y02853*
X03804Y02858*
X0381Y02862*
X03816Y02867*
X03822Y02873*
X03827Y02879*
X03832Y02885*
X03836Y02892*
X0384Y02899*
X03844Y02906*
X03847Y02913*
X03849Y02921*
X03851Y02929*
X03853Y02936*
X03854Y02944*
X03854Y02952*
X00311D02*
D01*
X0031Y0296*
X00309Y02968*
X00308Y02976*
X00306Y02984*
X00304Y02991*
X00301Y02999*
X00297Y03006*
X00293Y03013*
X00289Y03019*
X00284Y03026*
X00278Y03032*
X00273Y03037*
X00267Y03042*
X0026Y03047*
X00253Y03051*
X00246Y03055*
X00239Y03058*
X00232Y03061*
X00224Y03063*
X00216Y03065*
X00208Y03066*
X002Y03066*
X00192*
X00184Y03066*
X00177Y03065*
X00169Y03063*
X00161Y03061*
X00154Y03058*
X00146Y03055*
X00139Y03051*
X00133Y03047*
X00126Y03042*
X0012Y03037*
X00114Y03032*
X00109Y03026*
X00104Y03019*
X001Y03013*
X00096Y03006*
X00092Y02999*
X00089Y02991*
X00087Y02984*
X00085Y02976*
X00083Y02968*
X00082Y0296*
X00082Y02952*
X00082Y02944*
X00083Y02936*
X00085Y02929*
X00087Y02921*
X00089Y02913*
X00092Y02906*
X00096Y02899*
X001Y02892*
X00104Y02885*
X00109Y02879*
X00114Y02873*
X0012Y02867*
X00126Y02862*
X00133Y02858*
X00139Y02853*
X00146Y0285*
X00154Y02846*
X00161Y02844*
X00169Y02841*
X00177Y0284*
X00184Y02839*
X00192Y02838*
X002*
X00208Y02839*
X00216Y0284*
X00224Y02841*
X00232Y02844*
X00239Y02846*
X00246Y0285*
X00253Y02853*
X0026Y02858*
X00267Y02862*
X00273Y02867*
X00278Y02873*
X00284Y02879*
X00289Y02885*
X00293Y02892*
X00297Y02899*
X00301Y02906*
X00304Y02913*
X00306Y02921*
X00308Y02929*
X00309Y02936*
X0031Y02944*
X00311Y02952*
X00311Y00196D02*
D01*
X0031Y00204*
X00309Y00212*
X00308Y0022*
X00306Y00228*
X00304Y00235*
X00301Y00243*
X00297Y0025*
X00293Y00257*
X00289Y00263*
X00284Y0027*
X00278Y00276*
X00273Y00281*
X00267Y00286*
X0026Y00291*
X00253Y00295*
X00246Y00299*
X00239Y00302*
X00232Y00305*
X00224Y00307*
X00216Y00309*
X00208Y0031*
X002Y0031*
X00192*
X00184Y0031*
X00177Y00309*
X00169Y00307*
X00161Y00305*
X00154Y00302*
X00146Y00299*
X00139Y00295*
X00133Y00291*
X00126Y00286*
X0012Y00281*
X00114Y00276*
X00109Y0027*
X00104Y00263*
X001Y00257*
X00096Y0025*
X00092Y00243*
X00089Y00235*
X00087Y00228*
X00085Y0022*
X00083Y00212*
X00082Y00204*
X00082Y00196*
X00082Y00188*
X00083Y0018*
X00085Y00173*
X00087Y00165*
X00089Y00157*
X00092Y0015*
X00096Y00143*
X001Y00136*
X00104Y00129*
X00109Y00123*
X00114Y00117*
X0012Y00112*
X00126Y00106*
X00133Y00102*
X00139Y00097*
X00146Y00094*
X00154Y0009*
X00161Y00088*
X00169Y00086*
X00177Y00084*
X00184Y00083*
X00192Y00082*
X002*
X00208Y00083*
X00216Y00084*
X00224Y00086*
X00232Y00088*
X00239Y0009*
X00246Y00094*
X00253Y00097*
X0026Y00102*
X00267Y00106*
X00273Y00112*
X00278Y00117*
X00284Y00123*
X00289Y00129*
X00293Y00136*
X00297Y00143*
X00301Y0015*
X00304Y00157*
X00306Y00165*
X00308Y00173*
X00309Y0018*
X0031Y00188*
X00311Y00196*
X005Y02889D02*
D01*
X00504Y02883*
X00509Y02877*
X00515Y02872*
X0052Y02867*
X00527Y02862*
X00533Y02858*
X0054Y02854*
X00547Y02851*
X00554Y02848*
X00561Y02846*
X00569Y02844*
X00576Y02843*
X00584Y02842*
X00592Y02842*
X00599Y02842*
X00607Y02843*
X00614Y02845*
X00622Y02847*
X00629Y02849*
X00636Y02852*
X00643Y02856*
X0065Y0286*
X00656Y02864*
X00662Y02869*
X00668Y02874*
X00673Y0288*
X00678Y02886*
X00681Y02889*
Y03015D02*
D01*
X00676Y03021*
X00671Y03027*
X00666Y03033*
X0066Y03038*
X00654Y03042*
X00647Y03047*
X0064Y0305*
X00633Y03054*
X00626Y03056*
X00619Y03059*
X00611Y0306*
X00604Y03062*
X00596Y03062*
X00589Y03062*
X00581Y03062*
X00573Y03061*
X00566Y0306*
X00558Y03058*
X00551Y03055*
X00544Y03052*
X00537Y03049*
X0053Y03045*
X00524Y03041*
X00518Y03036*
X00512Y0303*
X00507Y03025*
X00502Y03019*
X005Y03015*
X00295Y02822D02*
X00374D01*
X00248Y02751D02*
Y02775D01*
X00421Y02751D02*
Y02775D01*
X00295Y02704D02*
X00374D01*
X00645Y01653D02*
Y01669D01*
X00598Y01653D02*
Y01669D01*
X03011Y00291D02*
X03043D01*
X03011Y00181D02*
X03043D01*
X03011D02*
Y00291D01*
X03043Y00181D02*
Y00291D01*
X03035Y00448D02*
Y00464D01*
X02988Y00448D02*
Y00464D01*
X00728Y02602D02*
X00807D01*
X00681Y02531D02*
Y02555D01*
X00854Y02531D02*
Y02555D01*
X00728Y02484D02*
X00807D01*
X00274Y02066D02*
X00352D01*
X00226Y01996D02*
Y02019D01*
X004Y01996D02*
Y02019D01*
X00274Y01948D02*
X00352D01*
X02015Y02866D02*
X02094D01*
X02141Y02913D02*
Y02937D01*
X01968Y02913D02*
Y02937D01*
X02015Y02984D02*
X02094D01*
X02015Y03125D02*
X02094D01*
X01968Y03055D02*
Y03078D01*
X02141Y03055D02*
Y03078D01*
X02015Y03007D02*
X02094D01*
X00551Y02822D02*
X00629D01*
X00503Y02751D02*
Y02775D01*
X00677Y02751D02*
Y02775D01*
X00551Y02704D02*
X00629D01*
X00681Y02889D02*
Y03015D01*
X005Y02889D02*
Y03015D01*
X0Y00118D02*
D01*
X0Y00109*
X00001Y00101*
X00002Y00093*
X00004Y00085*
X00007Y00077*
X0001Y0007*
X00013Y00062*
X00017Y00055*
X00022Y00048*
X00027Y00042*
X00033Y00036*
X00039Y0003*
X00045Y00025*
X00052Y0002*
X00059Y00015*
X00066Y00011*
X00073Y00008*
X00081Y00005*
X00089Y00003*
X00097Y00001*
X00105Y0*
X00113Y0*
X00118Y0*
X03819D02*
D01*
X03827Y0*
X03835Y00001*
X03843Y00002*
X03851Y00004*
X03859Y00007*
X03867Y0001*
X03874Y00013*
X03881Y00017*
X03888Y00022*
X03894Y00027*
X039Y00033*
X03906Y00039*
X03912Y00045*
X03916Y00051*
X03921Y00058*
X03925Y00066*
X03928Y00073*
X03931Y00081*
X03933Y00089*
X03935Y00097*
X03936Y00105*
X03936Y00113*
X03937Y00117*
Y03031D02*
D01*
X03936Y03039*
X03935Y03047*
X03934Y03056*
X03932Y03064*
X03929Y03071*
X03926Y03079*
X03923Y03086*
X03919Y03094*
X03914Y031*
X03909Y03107*
X03903Y03113*
X03897Y03119*
X03891Y03124*
X03884Y03129*
X03877Y03133*
X0387Y03137*
X03863Y03141*
X03855Y03143*
X03847Y03146*
X03839Y03147*
X03831Y03148*
X03823Y03149*
X03818Y03149*
X00118D02*
D01*
X00109Y03149*
X00101Y03148*
X00093Y03147*
X00085Y03145*
X00077Y03142*
X0007Y03139*
X00062Y03135*
X00055Y03131*
X00048Y03127*
X00042Y03121*
X00036Y03116*
X0003Y0311*
X00025Y03104*
X0002Y03097*
X00015Y0309*
X00011Y03083*
X00008Y03075*
X00005Y03067*
X00003Y0306*
X00001Y03052*
X0Y03043*
X0Y03035*
X0Y03031*
X00118Y0D02*
X03819D01*
X03937Y00117D02*
Y03031D01*
X00118Y03149D02*
X03818D01*
X0Y00118D02*
Y03031D01*
G54D11*
X00897Y01122D02*
Y02814D01*
X03275Y01122D02*
Y02814D01*
X00897D02*
X03275D01*
X00897Y01122D02*
X03275D01*
G54D12*
X0016Y01569D02*
X00467D01*
Y01278D02*
Y01569D01*
X0016Y01278D02*
Y01569D01*
Y01278D02*
X00467D01*
G54D13*
X00156Y0224D02*
Y02288D01*
X0018Y02264D02*
X00131D01*
X00255Y02916D02*
X00295D01*
X00275*
Y02856*
X00315D02*
Y02916D01*
X00345*
X00355Y02906*
Y02886*
X00345Y02876*
X00315*
X00375Y02906D02*
X00385Y02916D01*
X00405*
X00415Y02906*
Y02896*
X00405Y02886*
X00415Y02876*
Y02866*
X00405Y02856*
X00385*
X00375Y02866*
Y02876*
X00385Y02886*
X00375Y02896*
Y02906*
X00385Y02886D02*
X00405D01*
X00511Y02916D02*
X00551D01*
X00531*
Y02856*
X00571D02*
Y02916D01*
X00601*
X00611Y02906*
Y02886*
X00601Y02876*
X00571*
X00631Y02916D02*
X00671D01*
Y02906*
X00631Y02866*
Y02856*
X01975Y03076D02*
X02015D01*
X01995*
Y03016*
X02035D02*
Y03076D01*
X02065*
X02075Y03066*
Y03046*
X02065Y03036*
X02035*
X02135Y03076D02*
X02115Y03066D01*
X02095Y03046*
Y03026*
X02105Y03016*
X02125*
X02135Y03026*
Y03036*
X02125Y03046*
X02095*
X01975Y03219D02*
X02015D01*
X01995*
Y03159*
X02035D02*
Y03219D01*
X02065*
X02075Y03209*
Y03189*
X02065Y03179*
X02035*
X02135Y03219D02*
X02095D01*
Y03189*
X02115Y03199*
X02125*
X02135Y03189*
Y03169*
X02125Y03159*
X02105*
X02095Y03169*
X00234Y0216D02*
X00274D01*
X00254*
Y021*
X00294D02*
Y0216D01*
X00324*
X00334Y0215*
Y0213*
X00324Y0212*
X00294*
X00384Y021D02*
Y0216D01*
X00354Y0213*
X00394*
X00688Y02695D02*
X00728D01*
X00708*
Y02635*
X00748D02*
Y02695D01*
X00778*
X00788Y02685*
Y02665*
X00778Y02655*
X00748*
X00808Y02685D02*
X00818Y02695D01*
X00838*
X00848Y02685*
Y02675*
X00838Y02665*
X00828*
X00838*
X00848Y02655*
Y02645*
X00838Y02635*
X00818*
X00808Y02645*
X0311Y00079D02*
X0315D01*
X0313*
Y00019*
X0317D02*
Y00079D01*
X032*
X0321Y00069*
Y00049*
X032Y00039*
X0317*
X0327Y00019D02*
X0323D01*
X0327Y00059*
Y00069*
X0326Y00079*
X0324*
X0323Y00069*
X03267Y00079D02*
X03307D01*
X03287*
Y00019*
X03327D02*
Y00079D01*
X03357*
X03367Y00069*
Y00049*
X03357Y00039*
X03327*
X03387Y00019D02*
X03407D01*
X03397*
Y00079*
X03387Y00069*
X02999Y00322D02*
Y00362D01*
Y00342*
X03059*
Y00382D02*
Y00402D01*
Y00392*
X02999*
X03009Y00382*
X00094Y02614D02*
X00084Y02624D01*
X00064*
X00054Y02614*
Y02604*
X00064Y02594*
X00084*
X00094Y02584*
Y02574*
X00084Y02564*
X00064*
X00054Y02574*
X00114Y02564D02*
Y02624D01*
X00144*
X00154Y02614*
Y02594*
X00144Y02584*
X00114*
X00174Y02564D02*
X00194D01*
X00184*
Y02624*
X00174Y02614*
X00506Y03095D02*
Y03155D01*
X00536*
X00546Y03145*
Y03125*
X00536Y03115*
X00506*
X00526D02*
X00546Y03095D01*
X00566Y03145D02*
X00576Y03155D01*
X00596*
X00606Y03145*
Y03135*
X00596Y03125*
X00606Y03115*
Y03105*
X00596Y03095*
X00576*
X00566Y03105*
Y03115*
X00576Y03125*
X00566Y03135*
Y03145*
X00576Y03125D02*
X00596D01*
X00596Y01763D02*
Y01823D01*
X00626*
X00636Y01813*
Y01793*
X00626Y01783*
X00596*
X00616D02*
X00636Y01763D01*
X00696D02*
X00656D01*
X00696Y01803*
Y01813*
X00686Y01823*
X00666*
X00656Y01813*
X03043Y00539D02*
X02983D01*
Y00569*
X02993Y00579*
X03013*
X03023Y00569*
Y00539*
Y00559D02*
X03043Y00579D01*
Y00599D02*
Y00619D01*
Y00609*
X02983*
X02993Y00599*
X03632Y00343D02*
Y00403D01*
X03652Y00383*
X03672Y00403*
Y00343*
X03722D02*
Y00403D01*
X03692Y00373*
X03732*
X03632Y03099D02*
Y03159D01*
X03652Y03139*
X03672Y03159*
Y03099*
X03692Y03149D02*
X03702Y03159D01*
X03722*
X03732Y03149*
Y03139*
X03722Y03129*
X03712*
X03722*
X03732Y03119*
Y03109*
X03722Y03099*
X03702*
X03692Y03109*
X00089Y03099D02*
Y03159D01*
X00109Y03139*
X00129Y03159*
Y03099*
X00189D02*
X00149D01*
X00189Y03139*
Y03149*
X00179Y03159*
X00159*
X00149Y03149*
X00089Y00343D02*
Y00403D01*
X00109Y00383*
X00129Y00403*
Y00343*
X00149D02*
X00169D01*
X00159*
Y00403*
X00149Y00393*
X00898Y02913D02*
Y02853D01*
X00938*
X00998Y02903D02*
X00988Y02913D01*
X00968*
X00958Y02903*
Y02863*
X00968Y02853*
X00988*
X00998Y02863*
X01018Y02913D02*
Y02853D01*
X01048*
X01058Y02863*
Y02903*
X01048Y02913*
X01018*
X01078Y02853D02*
X01098D01*
X01088*
Y02913*
X01078Y02903*
X00152Y01661D02*
X00132D01*
X00142*
Y01611*
X00132Y01601*
X00122*
X00112Y01611*
X00212Y01601D02*
X00172D01*
X00212Y01641*
Y01651*
X00202Y01661*
X00182*
X00172Y01651*
X03216Y02716D02*
Y01259D01*
X03287*
Y02716D02*
Y01259D01*
X03216Y02716D02*
X03287D01*
M02*