<?xml version="1.0" encoding="UTF-8" standalone="no"?><svg xmlns="http://www.w3.org/2000/svg" xmlns:xlink="http://www.w3.org/1999/xlink" contentScriptType="application/ecmascript" contentStyleType="text/css" height="376px" preserveAspectRatio="none" style="width:244px;height:376px;background:#FFFFFF;" version="1.1" viewBox="0 0 244 376" width="244px" zoomAndPan="magnify">
    <defs />
    <g>
        <ellipse cx="104" cy="15" fill="#000000" rx="10" ry="10" style="stroke:none;stroke-width:1.0;" />
        <rect fill="#FFFFFF" height="34.584" rx="12.5" ry="12.5" style="stroke:#000000;stroke-width:1.0;" width="92" x="58" y="89" /><text fill="#000000" font-family="Verdana" font-size="12" lengthAdjust="spacing" textLength="72" x="68" y="111.0645">not Moving</text>
        <polygon fill="#FFFFFF" points="29.5,163.584,178.5,163.584,190.5,175.584,178.5,187.584,29.5,187.584,17.5,175.584,29.5,163.584" style="stroke:#000000;stroke-width:1.5;" /><text fill="#000000" font-family="Verdana" font-size="11" lengthAdjust="spacing" textLength="8" x="108" y="198.6431">n</text><text fill="#000000" font-family="Verdana" font-size="11" lengthAdjust="spacing" textLength="149" x="29.5" y="179.9587">event touch received ?</text><text fill="#000000" font-family="Verdana" font-size="11" lengthAdjust="spacing" textLength="8" x="190.5" y="173.2744">y</text>
        <rect fill="#FFFFFF" height="34.584" rx="12.5" ry="12.5" style="stroke:#000000;stroke-width:1.0;" width="68" x="70" y="222.584" /><text fill="#000000" font-family="Verdana" font-size="12" lengthAdjust="spacing" textLength="48" x="80" y="244.6484">moving</text>
        <polygon fill="#FFFFFF" points="27,297.168,181,297.168,193,309.168,181,321.168,27,321.168,15,309.168,27,297.168" style="stroke:#000000;stroke-width:1.5;" /><text fill="#000000" font-family="Verdana" font-size="11" lengthAdjust="spacing" textLength="8" x="108" y="332.2271">n</text><text fill="#000000" font-family="Verdana" font-size="11" lengthAdjust="spacing" textLength="154" x="27" y="313.5427">event releas received ?</text><text fill="#000000" font-family="Verdana" font-size="11" lengthAdjust="spacing" textLength="8" x="193" y="306.8584">y</text>
        <polygon fill="#FFFFFF" points="104,45,116,57,104,69,92,57,104,45" style="stroke:#000000;stroke-width:1.5;" />
        <line style="stroke:#000000;stroke-width:1.5;" x1="104" x2="104" y1="123.584" y2="163.584" />
        <polygon fill="#000000" points="100,153.584,104,163.584,108,153.584,104,157.584" style="stroke:#000000;stroke-width:1.0;" />
        <line style="stroke:#000000;stroke-width:1.5;" x1="190.5" x2="202.5" y1="175.584" y2="175.584" />
        <polygon fill="#000000" points="198.5,143.584,202.5,133.584,206.5,143.584,202.5,139.584" style="stroke:#000000;stroke-width:1.5;" />
        <line style="stroke:#000000;stroke-width:1.5;" x1="202.5" x2="202.5" y1="106.292" y2="175.584" />
        <line style="stroke:#000000;stroke-width:1.5;" x1="202.5" x2="150" y1="106.292" y2="106.292" />
        <polygon fill="#000000" points="160,102.292,150,106.292,160,110.292,156,106.292" style="stroke:#000000;stroke-width:1.0;" />
        <line style="stroke:#000000;stroke-width:1.5;" x1="104" x2="104" y1="257.168" y2="297.168" />
        <polygon fill="#000000" points="100,287.168,104,297.168,108,287.168,104,291.168" style="stroke:#000000;stroke-width:1.0;" />
        <line style="stroke:#000000;stroke-width:1.5;" x1="193" x2="205" y1="309.168" y2="309.168" />
        <polygon fill="#000000" points="201,277.168,205,267.168,209,277.168,205,273.168" style="stroke:#000000;stroke-width:1.5;" />
        <line style="stroke:#000000;stroke-width:1.5;" x1="205" x2="205" y1="239.876" y2="309.168" />
        <line style="stroke:#000000;stroke-width:1.5;" x1="205" x2="138" y1="239.876" y2="239.876" />
        <polygon fill="#000000" points="148,235.876,138,239.876,148,243.876,144,239.876" style="stroke:#000000;stroke-width:1.0;" />
        <line style="stroke:#000000;stroke-width:1.5;" x1="104" x2="104" y1="187.584" y2="222.584" />
        <polygon fill="#000000" points="100,212.584,104,222.584,108,212.584,104,216.584" style="stroke:#000000;stroke-width:1.0;" />
        <line style="stroke:#000000;stroke-width:1.5;" x1="104" x2="104" y1="69" y2="89" />
        <polygon fill="#000000" points="100,79,104,89,108,79,104,83" style="stroke:#000000;stroke-width:1.0;" />
        <line style="stroke:#000000;stroke-width:1.5;" x1="104" x2="104" y1="321.168" y2="369.168" />
        <line style="stroke:#000000;stroke-width:1.5;" x1="104" x2="223" y1="369.168" y2="369.168" />
        <polygon fill="#000000" points="219,209.084,223,199.084,227,209.084,223,205.084" style="stroke:#000000;stroke-width:1.5;" />
        <line style="stroke:#000000;stroke-width:1.5;" x1="223" x2="223" y1="57" y2="369.168" />
        <line style="stroke:#000000;stroke-width:1.5;" x1="223" x2="116" y1="57" y2="57" />
        <polygon fill="#000000" points="126,53,116,57,126,61,122,57" style="stroke:#000000;stroke-width:1.0;" />
        <line style="stroke:#000000;stroke-width:1.5;" x1="104" x2="104" y1="25" y2="45" />
        <polygon fill="#000000" points="100,35,104,45,108,35,104,39" style="stroke:#000000;stroke-width:1.0;" />
        <!--MD5=[9088341c8ed228029f7e40e2309a3271]
@startuml paddle

!theme plain

start
repeat
repeat :not Moving;
repeat while (event touch received ?) is (y) not (n)
repeat :moving;
repeat while (event releas received ?) is (y) not (n)

@enduml

@startuml paddle








<style>
  root {
    BackgroundColor white
    FontColor black
    FontName Verdana
    HyperLinkColor blue
    LineColor black
    LineThickness 1
    Margin 5
  }
  caption {
    LineThickness 0
  }
  footer {
    LineThickness 0
  }
  header {
    LineThickness 0
  }
  node {
    MaximumWidth 300
  }
  title {
    FontSize 22
    LineThickness 0
  }
</style>

skinparam ArrowLollipopColor black
skinparam BackgroundColor white
skinparam DefaultFontName Verdana
skinparam DefaultMonospacedFontName Courier
skinparam LifelineStrategy nosolid
skinparam ParticipantPadding 10
skinparam SequenceLifeLineBorderColor black
skinparam Shadowing false
skinparam UseBetaStyle true

skinparam Activity {
  BackgroundColor white
  BarColor black
  BorderColor black
  FontColor black
  FontName Verdana
}
skinparam Boundary {
  FontColor black
}
skinparam Box {
  Padding 5
}
skinparam CircledCharacter {
  FontColor black
  FontName Courier
  Radius 9
}
skinparam Class {
  BackgroundColor white
  BorderColor black
  FontColor black
  FontName Verdana
}
skinparam ClassAttribute {
  FontColor black
  FontName Verdana
}
skinparam ClassStereotype {
  FontColor black
  FontName Verdana
}
skinparam Footer {
  FontColor black
  FontName Verdana
}
skinparam Header {
  FontColor black
  FontName Verdana
}
skinparam Hyperlink {
  Color blue
}
skinparam IconPackage {
  Color black
  BackgroundColor white
}
skinparam IconPrivate {
  Color black
  BackgroundColor white
}
skinparam IconProtected {
  Color black
  BackgroundColor white
}
skinparam IconPublic {
  Color black
  BackgroundColor white
}
skinparam Note {
  FontColor black
  FontName Verdana
}
skinparam Package {
  BorderColor black
  FontColor black
  FontName Verdana
}
skinparam State {
  BackgroundColor white
  BorderColor black
}
skinparam StereotypeA {
  BackgroundColor white
  BorderColor black
}
skinparam StereotypeC {
  BackgroundColor white
  BorderColor black
}
skinparam StereotypeE {
  BackgroundColor white
  BorderColor black
}
skinparam StereotypeI {
  BackgroundColor white
  BorderColor black
}
skinparam StereotypeN {
  BackgroundColor white
  BorderColor black
}
skinparam UseCaseStereoType {
  FontColor black
  FontName Verdana
}

start
repeat
repeat :not Moving;
repeat while (event touch received ?) is (y) not (n)
repeat :moving;
repeat while (event releas received ?) is (y) not (n)

@enduml

PlantUML version 1.2021.6(Fri May 14 09:09:51 CEST 2021)
(GPL source distribution)
Java Runtime: Java(TM) SE Runtime Environment
JVM: Java HotSpot(TM) 64-Bit Server VM
Default Encoding: Cp1252
Language: fr
Country: CH
-->
    </g>
</svg>