<?xml version="1.0" encoding="UTF-8" standalone="no"?><svg xmlns="http://www.w3.org/2000/svg" xmlns:xlink="http://www.w3.org/1999/xlink" contentScriptType="application/ecmascript" contentStyleType="text/css" height="320px" preserveAspectRatio="none" style="width:237px;height:320px;background:#FFFFFF;" version="1.1" viewBox="0 0 237 320" width="237px" zoomAndPan="magnify">
    <defs />
    <g>
        <ellipse cx="125" cy="15" fill="#000000" rx="10" ry="10" style="stroke:none;stroke-width:1.0;" />
        <rect fill="#FFFFFF" height="34.584" rx="12.5" ry="12.5" style="stroke:#000000;stroke-width:1.0;" width="135" x="57.5" y="156.1431" /><text fill="#000000" font-family="Verdana" font-size="12" lengthAdjust="spacing" textLength="115" x="67.5" y="178.2075">Reset sleep timer</text>
        <polygon fill="#FFFFFF" points="80,99.584,170,99.584,182,111.584,170,123.584,80,123.584,68,111.584,80,99.584" style="stroke:#000000;stroke-width:1.5;" /><text fill="#000000" font-family="Verdana" font-size="11" lengthAdjust="spacing" textLength="23" x="129" y="134.6431">yes</text><text fill="#000000" font-family="Verdana" font-size="11" lengthAdjust="spacing" textLength="90" x="80" y="115.9587">Touch press ?</text><text fill="#000000" font-family="Verdana" font-size="11" lengthAdjust="spacing" textLength="63" x="5" y="109.2744">timer tick</text>
        <rect fill="#FFFFFF" height="34.584" rx="12.5" ry="12.5" style="stroke:#000000;stroke-width:1.0;" width="55" x="97.5" y="234.7271" /><text fill="#000000" font-family="Verdana" font-size="12" lengthAdjust="spacing" textLength="35" x="107.5" y="256.7915">sleep</text>
        <rect fill="#FFFFFF" height="34.584" rx="12.5" ry="12.5" style="stroke:#000000;stroke-width:1.0;" width="78" x="86" y="45" /><text fill="#000000" font-family="Verdana" font-size="12" lengthAdjust="spacing" textLength="58" x="96" y="67.0645">Wake up</text>
        <polygon fill="#FFFFFF" points="80,289.311,170,289.311,182,301.311,170,313.311,80,313.311,68,301.311,80,289.311" style="stroke:#000000;stroke-width:1.5;" /><text fill="#000000" font-family="Verdana" font-size="11" lengthAdjust="spacing" textLength="90" x="80" y="305.6858">Touch press ?</text>
        <line style="stroke:#000000;stroke-width:1.5;" x1="125" x2="125" y1="123.584" y2="156.1431" />
        <polygon fill="#000000" points="121,146.1431,125,156.1431,129,146.1431,125,150.1431" style="stroke:#000000;stroke-width:1.0;" />
        <line style="stroke:#000000;stroke-width:1.5;" x1="125" x2="125" y1="190.7271" y2="202.7271" />
        <line style="stroke:#000000;stroke-width:1.5;" x1="125" x2="204.5" y1="202.7271" y2="202.7271" />
        <polygon fill="#000000" points="200.5,164.7507,204.5,154.7507,208.5,164.7507,204.5,160.7507" style="stroke:#000000;stroke-width:1.5;" />
        <line style="stroke:#000000;stroke-width:1.5;" x1="204.5" x2="204.5" y1="111.584" y2="202.7271" />
        <line style="stroke:#000000;stroke-width:1.5;" x1="204.5" x2="182" y1="111.584" y2="111.584" />
        <polygon fill="#000000" points="192,107.584,182,111.584,192,115.584,188,111.584" style="stroke:#000000;stroke-width:1.0;" />
        <line style="stroke:#000000;stroke-width:1.5;" x1="68" x2="45.5" y1="111.584" y2="111.584" />
        <polygon fill="#000000" points="41.5,150.7507,45.5,160.7507,49.5,150.7507,45.5,154.7507" style="stroke:#000000;stroke-width:1.5;" />
        <line style="stroke:#000000;stroke-width:1.5;" x1="45.5" x2="45.5" y1="111.584" y2="214.7271" />
        <line style="stroke:#000000;stroke-width:1.5;" x1="45.5" x2="125" y1="214.7271" y2="214.7271" />
        <line style="stroke:#000000;stroke-width:1.5;" x1="125" x2="125" y1="214.7271" y2="234.7271" />
        <polygon fill="#000000" points="121,224.7271,125,234.7271,129,224.7271,125,228.7271" style="stroke:#000000;stroke-width:1.0;" />
        <line style="stroke:#000000;stroke-width:1.5;" x1="125" x2="125" y1="79.584" y2="99.584" />
        <polygon fill="#000000" points="121,89.584,125,99.584,129,89.584,125,93.584" style="stroke:#000000;stroke-width:1.0;" />
        <line style="stroke:#000000;stroke-width:1.5;" x1="182" x2="216.5" y1="301.311" y2="301.311" />
        <polygon fill="#000000" points="212.5,196.8967,216.5,186.8967,220.5,196.8967,216.5,192.8967" style="stroke:#000000;stroke-width:1.5;" />
        <line style="stroke:#000000;stroke-width:1.5;" x1="216.5" x2="216.5" y1="62.292" y2="301.311" />
        <line style="stroke:#000000;stroke-width:1.5;" x1="216.5" x2="164" y1="62.292" y2="62.292" />
        <polygon fill="#000000" points="174,58.292,164,62.292,174,66.292,170,62.292" style="stroke:#000000;stroke-width:1.0;" />
        <line style="stroke:#000000;stroke-width:1.5;" x1="125" x2="125" y1="269.311" y2="289.311" />
        <polygon fill="#000000" points="121,279.311,125,289.311,129,279.311,125,283.311" style="stroke:#000000;stroke-width:1.0;" />
        <line style="stroke:#000000;stroke-width:1.5;" x1="125" x2="125" y1="25" y2="45" />
        <polygon fill="#000000" points="121,35,125,45,129,35,125,39" style="stroke:#000000;stroke-width:1.0;" />
        <!--MD5=[24d53c8d04f5e392e7c2d55e9c9471e9]
@startuml pongboy

!theme plain

start
repeat :Wake up;
while (Touch press ?) is (yes)
    :Reset sleep timer;
endwhile (timer tick)
:sleep;
repeat while(Touch press ?)

@enduml

@startuml pongboy








<style>
  root {
    BackgroundColor white
    FontColor black
    FontName Verdana
    HyperLinkColor blue
    LineColor black
    LineThickness 1
    Margin 5
  }
  caption {
    LineThickness 0
  }
  footer {
    LineThickness 0
  }
  header {
    LineThickness 0
  }
  node {
    MaximumWidth 300
  }
  title {
    FontSize 22
    LineThickness 0
  }
</style>

skinparam ArrowLollipopColor black
skinparam BackgroundColor white
skinparam DefaultFontName Verdana
skinparam DefaultMonospacedFontName Courier
skinparam LifelineStrategy nosolid
skinparam ParticipantPadding 10
skinparam SequenceLifeLineBorderColor black
skinparam Shadowing false
skinparam UseBetaStyle true

skinparam Activity {
  BackgroundColor white
  BarColor black
  BorderColor black
  FontColor black
  FontName Verdana
}
skinparam Boundary {
  FontColor black
}
skinparam Box {
  Padding 5
}
skinparam CircledCharacter {
  FontColor black
  FontName Courier
  Radius 9
}
skinparam Class {
  BackgroundColor white
  BorderColor black
  FontColor black
  FontName Verdana
}
skinparam ClassAttribute {
  FontColor black
  FontName Verdana
}
skinparam ClassStereotype {
  FontColor black
  FontName Verdana
}
skinparam Footer {
  FontColor black
  FontName Verdana
}
skinparam Header {
  FontColor black
  FontName Verdana
}
skinparam Hyperlink {
  Color blue
}
skinparam IconPackage {
  Color black
  BackgroundColor white
}
skinparam IconPrivate {
  Color black
  BackgroundColor white
}
skinparam IconProtected {
  Color black
  BackgroundColor white
}
skinparam IconPublic {
  Color black
  BackgroundColor white
}
skinparam Note {
  FontColor black
  FontName Verdana
}
skinparam Package {
  BorderColor black
  FontColor black
  FontName Verdana
}
skinparam State {
  BackgroundColor white
  BorderColor black
}
skinparam StereotypeA {
  BackgroundColor white
  BorderColor black
}
skinparam StereotypeC {
  BackgroundColor white
  BorderColor black
}
skinparam StereotypeE {
  BackgroundColor white
  BorderColor black
}
skinparam StereotypeI {
  BackgroundColor white
  BorderColor black
}
skinparam StereotypeN {
  BackgroundColor white
  BorderColor black
}
skinparam UseCaseStereoType {
  FontColor black
  FontName Verdana
}

start
repeat :Wake up;
while (Touch press ?) is (yes)
    :Reset sleep timer;
endwhile (timer tick)
:sleep;
repeat while(Touch press ?)

@enduml

PlantUML version 1.2021.6(Fri May 14 09:09:51 CEST 2021)
(GPL source distribution)
Java Runtime: Java(TM) SE Runtime Environment
JVM: Java HotSpot(TM) 64-Bit Server VM
Default Encoding: Cp1252
Language: fr
Country: CH
-->
    </g>
</svg>