<?xml version="1.0" encoding="UTF-8" standalone="no"?><svg xmlns="http://www.w3.org/2000/svg" xmlns:xlink="http://www.w3.org/1999/xlink" contentScriptType="application/ecmascript" contentStyleType="text/css" height="374px" preserveAspectRatio="none" style="width:237px;height:374px;background:#FFFFFF;" version="1.1" viewBox="0 0 237 374" width="237px" zoomAndPan="magnify"><defs/><g><ellipse cx="125" cy="15" fill="#000000" rx="10" ry="10" style="stroke:none;stroke-width:1.0;"/><rect fill="#FFFFFF" height="34.584" rx="12.5" ry="12.5" style="stroke:#000000;stroke-width:1.0;" width="120" x="65" y="45"/><text fill="#000000" font-family="Verdana" font-size="12" lengthAdjust="spacing" textLength="100" x="75" y="67.0645">Set sleep timer</text><rect fill="#FFFFFF" height="34.584" rx="12.5" ry="12.5" style="stroke:#000000;stroke-width:1.0;" width="135" x="57.5" y="210.7271"/><text fill="#000000" font-family="Verdana" font-size="12" lengthAdjust="spacing" textLength="115" x="67.5" y="232.7915">Reset sleep timer</text><polygon fill="#FFFFFF" points="80,154.168,170,154.168,182,166.168,170,178.168,80,178.168,68,166.168,80,154.168" style="stroke:#000000;stroke-width:1.5;"/><text fill="#000000" font-family="Verdana" font-size="11" lengthAdjust="spacing" textLength="23" x="129" y="189.2271">yes</text><text fill="#000000" font-family="Verdana" font-size="11" lengthAdjust="spacing" textLength="90" x="80" y="170.5427">Touch press ?</text><text fill="#000000" font-family="Verdana" font-size="11" lengthAdjust="spacing" textLength="63" x="5" y="163.8584">timer tick</text><rect fill="#FFFFFF" height="34.584" rx="12.5" ry="12.5" style="stroke:#000000;stroke-width:1.0;" width="55" x="97.5" y="289.311"/><text fill="#000000" font-family="Verdana" font-size="12" lengthAdjust="spacing" textLength="35" x="107.5" y="311.3755">sleep</text><rect fill="#FFFFFF" height="34.584" rx="12.5" ry="12.5" style="stroke:#000000;stroke-width:1.0;" width="78" x="86" y="99.584"/><text fill="#000000" font-family="Verdana" font-size="12" lengthAdjust="spacing" textLength="58" x="96" y="121.6484">Wake up</text><polygon fill="#FFFFFF" points="80,343.895,170,343.895,182,355.895,170,367.895,80,367.895,68,355.895,80,343.895" style="stroke:#000000;stroke-width:1.5;"/><text fill="#000000" font-family="Verdana" font-size="11" lengthAdjust="spacing" textLength="90" x="80" y="360.2698">Touch press ?</text><line style="stroke:#000000;stroke-width:1.5;" x1="125" x2="125" y1="25" y2="45"/><polygon fill="#000000" points="121,35,125,45,129,35,125,39" style="stroke:#000000;stroke-width:1.0;"/><line style="stroke:#000000;stroke-width:1.5;" x1="125" x2="125" y1="178.168" y2="210.7271"/><polygon fill="#000000" points="121,200.7271,125,210.7271,129,200.7271,125,204.7271" style="stroke:#000000;stroke-width:1.0;"/><line style="stroke:#000000;stroke-width:1.5;" x1="125" x2="125" y1="245.311" y2="257.311"/><line style="stroke:#000000;stroke-width:1.5;" x1="125" x2="204.5" y1="257.311" y2="257.311"/><polygon fill="#000000" points="200.5,219.3347,204.5,209.3347,208.5,219.3347,204.5,215.3347" style="stroke:#000000;stroke-width:1.5;"/><line style="stroke:#000000;stroke-width:1.5;" x1="204.5" x2="204.5" y1="166.168" y2="257.311"/><line style="stroke:#000000;stroke-width:1.5;" x1="204.5" x2="182" y1="166.168" y2="166.168"/><polygon fill="#000000" points="192,162.168,182,166.168,192,170.168,188,166.168" style="stroke:#000000;stroke-width:1.0;"/><line style="stroke:#000000;stroke-width:1.5;" x1="68" x2="45.5" y1="166.168" y2="166.168"/><polygon fill="#000000" points="41.5,205.3347,45.5,215.3347,49.5,205.3347,45.5,209.3347" style="stroke:#000000;stroke-width:1.5;"/><line style="stroke:#000000;stroke-width:1.5;" x1="45.5" x2="45.5" y1="166.168" y2="269.311"/><line style="stroke:#000000;stroke-width:1.5;" x1="45.5" x2="125" y1="269.311" y2="269.311"/><line style="stroke:#000000;stroke-width:1.5;" x1="125" x2="125" y1="269.311" y2="289.311"/><polygon fill="#000000" points="121,279.311,125,289.311,129,279.311,125,283.311" style="stroke:#000000;stroke-width:1.0;"/><line style="stroke:#000000;stroke-width:1.5;" x1="125" x2="125" y1="134.168" y2="154.168"/><polygon fill="#000000" points="121,144.168,125,154.168,129,144.168,125,148.168" style="stroke:#000000;stroke-width:1.0;"/><line style="stroke:#000000;stroke-width:1.5;" x1="182" x2="216.5" y1="355.895" y2="355.895"/><polygon fill="#000000" points="212.5,251.4807,216.5,241.4807,220.5,251.4807,216.5,247.4807" style="stroke:#000000;stroke-width:1.5;"/><line style="stroke:#000000;stroke-width:1.5;" x1="216.5" x2="216.5" y1="116.876" y2="355.895"/><line style="stroke:#000000;stroke-width:1.5;" x1="216.5" x2="164" y1="116.876" y2="116.876"/><polygon fill="#000000" points="174,112.876,164,116.876,174,120.876,170,116.876" style="stroke:#000000;stroke-width:1.0;"/><line style="stroke:#000000;stroke-width:1.5;" x1="125" x2="125" y1="323.895" y2="343.895"/><polygon fill="#000000" points="121,333.895,125,343.895,129,333.895,125,337.895" style="stroke:#000000;stroke-width:1.0;"/><line style="stroke:#000000;stroke-width:1.5;" x1="125" x2="125" y1="79.584" y2="99.584"/><polygon fill="#000000" points="121,89.584,125,99.584,129,89.584,125,93.584" style="stroke:#000000;stroke-width:1.0;"/><!--MD5=[fd47839eb20b45748fecbf9155862a5b]
@startuml pongboy

!theme plain

start
:Set sleep timer;
repeat :Wake up;
while (Touch press ?) is (yes)
    :Reset sleep timer;
endwhile (timer tick)
:sleep;
repeat while(Touch press ?)

@enduml

@startuml pongboy








<style>
  root {
    BackgroundColor white
    FontColor black
    FontName Verdana
    HyperLinkColor blue
    LineColor black
    LineThickness 1
    Margin 5
  }
  caption {
    LineThickness 0
  }
  footer {
    LineThickness 0
  }
  header {
    LineThickness 0
  }
  node {
    MaximumWidth 300
  }
  title {
    FontSize 22
    LineThickness 0
  }
</style>

skinparam ArrowLollipopColor black
skinparam BackgroundColor white
skinparam DefaultFontName Verdana
skinparam DefaultMonospacedFontName Courier
skinparam LifelineStrategy nosolid
skinparam ParticipantPadding 10
skinparam SequenceLifeLineBorderColor black
skinparam Shadowing false
skinparam UseBetaStyle true

skinparam Activity {
  BackgroundColor white
  BarColor black
  BorderColor black
  FontColor black
  FontName Verdana
}
skinparam Boundary {
  FontColor black
}
skinparam Box {
  Padding 5
}
skinparam CircledCharacter {
  FontColor black
  FontName Courier
  Radius 9
}
skinparam Class {
  BackgroundColor white
  BorderColor black
  FontColor black
  FontName Verdana
}
skinparam ClassAttribute {
  FontColor black
  FontName Verdana
}
skinparam ClassStereotype {
  FontColor black
  FontName Verdana
}
skinparam Footer {
  FontColor black
  FontName Verdana
}
skinparam Header {
  FontColor black
  FontName Verdana
}
skinparam Hyperlink {
  Color blue
}
skinparam IconPackage {
  Color black
  BackgroundColor white
}
skinparam IconPrivate {
  Color black
  BackgroundColor white
}
skinparam IconProtected {
  Color black
  BackgroundColor white
}
skinparam IconPublic {
  Color black
  BackgroundColor white
}
skinparam Note {
  FontColor black
  FontName Verdana
}
skinparam Package {
  BorderColor black
  FontColor black
  FontName Verdana
}
skinparam State {
  BackgroundColor white
  BorderColor black
}
skinparam StereotypeA {
  BackgroundColor white
  BorderColor black
}
skinparam StereotypeC {
  BackgroundColor white
  BorderColor black
}
skinparam StereotypeE {
  BackgroundColor white
  BorderColor black
}
skinparam StereotypeI {
  BackgroundColor white
  BorderColor black
}
skinparam StereotypeN {
  BackgroundColor white
  BorderColor black
}
skinparam UseCaseStereoType {
  FontColor black
  FontName Verdana
}

start
:Set sleep timer;
repeat :Wake up;
while (Touch press ?) is (yes)
    :Reset sleep timer;
endwhile (timer tick)
:sleep;
repeat while(Touch press ?)

@enduml

PlantUML version 1.2021.7(Sun May 23 14:40:07 CEST 2021)
(GPL source distribution)
Java Runtime: Java(TM) SE Runtime Environment
JVM: Java HotSpot(TM) 64-Bit Server VM
Default Encoding: Cp1252
Language: fr
Country: CH
--></g></svg>