<?xml version="1.0" encoding="UTF-8" standalone="no"?><svg xmlns="http://www.w3.org/2000/svg" xmlns:xlink="http://www.w3.org/1999/xlink" contentScriptType="application/ecmascript" contentStyleType="text/css" height="526px" preserveAspectRatio="none" style="width:271px;height:526px;background:#FFFFFF;" version="1.1" viewBox="0 0 271 526" width="271px" zoomAndPan="magnify">
    <defs />
    <g>
        <ellipse cx="117.5" cy="15" fill="#000000" rx="10" ry="10" style="stroke:none;stroke-width:1.0;" />
        <rect fill="#FFFFFF" height="34.584" rx="12.5" ry="12.5" style="stroke:#000000;stroke-width:1.0;" width="71" x="82" y="89" /><text fill="#000000" font-family="Verdana" font-size="12" lengthAdjust="spacing" textLength="51" x="92" y="111.0645">in Menu</text>
        <polygon fill="#FFFFFF" points="43,163.584,192,163.584,204,175.584,192,187.584,43,187.584,31,175.584,43,163.584" style="stroke:#000000;stroke-width:1.5;" /><text fill="#000000" font-family="Verdana" font-size="11" lengthAdjust="spacing" textLength="77" x="121.5" y="198.6431">game event</text><text fill="#000000" font-family="Verdana" font-size="11" lengthAdjust="spacing" textLength="149" x="43" y="179.9587">game event received ?</text><text fill="#000000" font-family="Verdana" font-size="11" lengthAdjust="spacing" textLength="8" x="204" y="173.2744">n</text>
        <rect fill="#FFFFFF" height="34.584" rx="12.5" ry="12.5" style="stroke:#000000;stroke-width:1.0;" width="90" x="72.5" y="283.9351" /><text fill="#000000" font-family="Verdana" font-size="12" lengthAdjust="spacing" textLength="70" x="82.5" y="305.9995">Game step</text>
        <rect fill="#FFFFFF" height="34.584" rx="12.5" ry="12.5" style="stroke:#000000;stroke-width:1.0;" width="125" x="55" y="338.519" /><text fill="#000000" font-family="Verdana" font-size="12" lengthAdjust="spacing" textLength="105" x="65" y="360.5835">Check collisions</text>
        <rect fill="#FFFFFF" height="34.584" rx="12.5" ry="12.5" style="stroke:#000000;stroke-width:1.0;" width="120" x="57.5" y="393.103" /><text fill="#000000" font-family="Verdana" font-size="12" lengthAdjust="spacing" textLength="100" x="67.5" y="415.1675">Move opponant</text>
        <rect fill="#FFFFFF" height="34.584" rx="12.5" ry="12.5" style="stroke:#000000;stroke-width:1.0;" width="133" x="51" y="220.1431" /><text fill="#000000" font-family="Verdana" font-size="12" lengthAdjust="spacing" textLength="113" x="61" y="242.2075">start game Timer</text>
        <polygon fill="#FFFFFF" points="27,447.687,208,447.687,220,459.687,208,471.687,27,471.687,15,459.687,27,447.687" style="stroke:#000000;stroke-width:1.5;" /><text fill="#000000" font-family="Verdana" font-size="11" lengthAdjust="spacing" textLength="77" x="121.5" y="482.7461">menu event</text><text fill="#000000" font-family="Verdana" font-size="11" lengthAdjust="spacing" textLength="181" x="27" y="464.0618">game step event received ?</text><text fill="#000000" font-family="Verdana" font-size="11" lengthAdjust="spacing" textLength="8" x="220" y="457.3774">y</text>
        <polygon fill="#FFFFFF" points="117.5,45,129.5,57,117.5,69,105.5,57,117.5,45" style="stroke:#000000;stroke-width:1.5;" />
        <line style="stroke:#000000;stroke-width:1.5;" x1="117.5" x2="117.5" y1="123.584" y2="163.584" />
        <polygon fill="#000000" points="113.5,153.584,117.5,163.584,121.5,153.584,117.5,157.584" style="stroke:#000000;stroke-width:1.0;" />
        <line style="stroke:#000000;stroke-width:1.5;" x1="204" x2="216" y1="175.584" y2="175.584" />
        <polygon fill="#000000" points="212,143.584,216,133.584,220,143.584,216,139.584" style="stroke:#000000;stroke-width:1.5;" />
        <line style="stroke:#000000;stroke-width:1.5;" x1="216" x2="216" y1="106.292" y2="175.584" />
        <line style="stroke:#000000;stroke-width:1.5;" x1="216" x2="153" y1="106.292" y2="106.292" />
        <polygon fill="#000000" points="163,102.292,153,106.292,163,110.292,159,106.292" style="stroke:#000000;stroke-width:1.0;" />
        <line style="stroke:#000000;stroke-width:1.5;" x1="117.5" x2="117.5" y1="318.519" y2="338.519" />
        <polygon fill="#000000" points="113.5,328.519,117.5,338.519,121.5,328.519,117.5,332.519" style="stroke:#000000;stroke-width:1.0;" />
        <line style="stroke:#000000;stroke-width:1.5;" x1="117.5" x2="117.5" y1="373.103" y2="393.103" />
        <polygon fill="#000000" points="113.5,383.103,117.5,393.103,121.5,383.103,117.5,387.103" style="stroke:#000000;stroke-width:1.0;" />
        <line style="stroke:#000000;stroke-width:1.5;" x1="117.5" x2="117.5" y1="254.7271" y2="283.9351" />
        <polygon fill="#000000" points="113.5,273.9351,117.5,283.9351,121.5,273.9351,117.5,277.9351" style="stroke:#000000;stroke-width:1.0;" />
        <line style="stroke:#000000;stroke-width:1.5;" x1="220" x2="232" y1="459.687" y2="459.687" />
        <polygon fill="#000000" points="228,363.165,232,353.165,236,363.165,232,359.165" style="stroke:#000000;stroke-width:1.5;" />
        <line style="stroke:#000000;stroke-width:1.5;" x1="232" x2="232" y1="237.4351" y2="459.687" />
        <line style="stroke:#000000;stroke-width:1.5;" x1="232" x2="184" y1="237.4351" y2="237.4351" />
        <polygon fill="#000000" points="194,233.4351,184,237.4351,194,241.4351,190,237.4351" style="stroke:#000000;stroke-width:1.0;" />
        <line style="stroke:#000000;stroke-width:1.5;" x1="117.5" x2="117.5" y1="427.687" y2="447.687" />
        <polygon fill="#000000" points="113.5,437.687,117.5,447.687,121.5,437.687,117.5,441.687" style="stroke:#000000;stroke-width:1.0;" />
        <line style="stroke:#000000;stroke-width:1.5;" x1="117.5" x2="117.5" y1="187.584" y2="220.1431" />
        <polygon fill="#000000" points="113.5,210.1431,117.5,220.1431,121.5,210.1431,117.5,214.1431" style="stroke:#000000;stroke-width:1.0;" />
        <line style="stroke:#000000;stroke-width:1.5;" x1="117.5" x2="117.5" y1="69" y2="89" />
        <polygon fill="#000000" points="113.5,79,117.5,89,121.5,79,117.5,83" style="stroke:#000000;stroke-width:1.0;" />
        <line style="stroke:#000000;stroke-width:1.5;" x1="117.5" x2="117.5" y1="471.687" y2="519.687" />
        <line style="stroke:#000000;stroke-width:1.5;" x1="117.5" x2="250" y1="519.687" y2="519.687" />
        <polygon fill="#000000" points="246,274.7271,250,264.7271,254,274.7271,250,270.7271" style="stroke:#000000;stroke-width:1.5;" />
        <line style="stroke:#000000;stroke-width:1.5;" x1="250" x2="250" y1="57" y2="519.687" />
        <line style="stroke:#000000;stroke-width:1.5;" x1="250" x2="129.5" y1="57" y2="57" />
        <polygon fill="#000000" points="139.5,53,129.5,57,139.5,61,135.5,57" style="stroke:#000000;stroke-width:1.0;" />
        <line style="stroke:#000000;stroke-width:1.5;" x1="117.5" x2="117.5" y1="25" y2="45" />
        <polygon fill="#000000" points="113.5,35,117.5,45,121.5,35,117.5,39" style="stroke:#000000;stroke-width:1.0;" />
        <!--MD5=[bf9b6925fa10be2bd78b54c72b33b5fc]
@startuml pong_ctrl

!theme plain

start
repeat
    repeat :in Menu;
        repeat while (game event received ?) is (n) not (game event)
        repeat :start game Timer;
        :Game step;
        :Check collisions;
        :Move opponant;
    repeat while (game step event received ?) is (y) not (menu event)

@enduml

@startuml pong_ctrl








<style>
  root {
    BackgroundColor white
    FontColor black
    FontName Verdana
    HyperLinkColor blue
    LineColor black
    LineThickness 1
    Margin 5
  }
  caption {
    LineThickness 0
  }
  footer {
    LineThickness 0
  }
  header {
    LineThickness 0
  }
  node {
    MaximumWidth 300
  }
  title {
    FontSize 22
    LineThickness 0
  }
</style>

skinparam ArrowLollipopColor black
skinparam BackgroundColor white
skinparam DefaultFontName Verdana
skinparam DefaultMonospacedFontName Courier
skinparam LifelineStrategy nosolid
skinparam ParticipantPadding 10
skinparam SequenceLifeLineBorderColor black
skinparam Shadowing false
skinparam UseBetaStyle true

skinparam Activity {
  BackgroundColor white
  BarColor black
  BorderColor black
  FontColor black
  FontName Verdana
}
skinparam Boundary {
  FontColor black
}
skinparam Box {
  Padding 5
}
skinparam CircledCharacter {
  FontColor black
  FontName Courier
  Radius 9
}
skinparam Class {
  BackgroundColor white
  BorderColor black
  FontColor black
  FontName Verdana
}
skinparam ClassAttribute {
  FontColor black
  FontName Verdana
}
skinparam ClassStereotype {
  FontColor black
  FontName Verdana
}
skinparam Footer {
  FontColor black
  FontName Verdana
}
skinparam Header {
  FontColor black
  FontName Verdana
}
skinparam Hyperlink {
  Color blue
}
skinparam IconPackage {
  Color black
  BackgroundColor white
}
skinparam IconPrivate {
  Color black
  BackgroundColor white
}
skinparam IconProtected {
  Color black
  BackgroundColor white
}
skinparam IconPublic {
  Color black
  BackgroundColor white
}
skinparam Note {
  FontColor black
  FontName Verdana
}
skinparam Package {
  BorderColor black
  FontColor black
  FontName Verdana
}
skinparam State {
  BackgroundColor white
  BorderColor black
}
skinparam StereotypeA {
  BackgroundColor white
  BorderColor black
}
skinparam StereotypeC {
  BackgroundColor white
  BorderColor black
}
skinparam StereotypeE {
  BackgroundColor white
  BorderColor black
}
skinparam StereotypeI {
  BackgroundColor white
  BorderColor black
}
skinparam StereotypeN {
  BackgroundColor white
  BorderColor black
}
skinparam UseCaseStereoType {
  FontColor black
  FontName Verdana
}

start
repeat
    repeat :in Menu;
        repeat while (game event received ?) is (n) not (game event)
        repeat :start game Timer;
        :Game step;
        :Check collisions;
        :Move opponant;
    repeat while (game step event received ?) is (y) not (menu event)

@enduml

PlantUML version 1.2021.6(Fri May 14 09:09:51 CEST 2021)
(GPL source distribution)
Java Runtime: Java(TM) SE Runtime Environment
JVM: Java HotSpot(TM) 64-Bit Server VM
Default Encoding: Cp1252
Language: fr
Country: CH
-->
    </g>
</svg>