G04*
G04 #@! TF.GenerationSoftware,Altium Limited,Altium Designer,19.0.10 (269)*
G04*
G04 Layer_Physical_Order=2*
G04 Layer_Color=16711680*
%FSLAX44Y44*%
%MOMM*%
G71*
G01*
G75*
G04:AMPARAMS|DCode=10|XSize=1.1mm|YSize=1.35mm|CornerRadius=0.1375mm|HoleSize=0mm|Usage=FLASHONLY|Rotation=270.000|XOffset=0mm|YOffset=0mm|HoleType=Round|Shape=RoundedRectangle|*
%AMROUNDEDRECTD10*
21,1,1.1000,1.0750,0,0,270.0*
21,1,0.8250,1.3500,0,0,270.0*
1,1,0.2750,-0.5375,-0.4125*
1,1,0.2750,-0.5375,0.4125*
1,1,0.2750,0.5375,0.4125*
1,1,0.2750,0.5375,-0.4125*
%
%ADD10ROUNDEDRECTD10*%
%ADD11C,2.0000*%
G04:AMPARAMS|DCode=12|XSize=0.6mm|YSize=0.9mm|CornerRadius=0.15mm|HoleSize=0mm|Usage=FLASHONLY|Rotation=90.000|XOffset=0mm|YOffset=0mm|HoleType=Round|Shape=RoundedRectangle|*
%AMROUNDEDRECTD12*
21,1,0.6000,0.6000,0,0,90.0*
21,1,0.3000,0.9000,0,0,90.0*
1,1,0.3000,0.3000,0.1500*
1,1,0.3000,0.3000,-0.1500*
1,1,0.3000,-0.3000,-0.1500*
1,1,0.3000,-0.3000,0.1500*
%
%ADD12ROUNDEDRECTD12*%
%ADD15C,0.4500*%
%ADD17C,0.2500*%
%ADD18C,0.2540*%
%ADD20C,0.1500*%
%ADD21O,3.8000X2.5000*%
G04:AMPARAMS|DCode=22|XSize=2.032mm|YSize=2.032mm|CornerRadius=0.508mm|HoleSize=0mm|Usage=FLASHONLY|Rotation=180.000|XOffset=0mm|YOffset=0mm|HoleType=Round|Shape=RoundedRectangle|*
%AMROUNDEDRECTD22*
21,1,2.0320,1.0160,0,0,180.0*
21,1,1.0160,2.0320,0,0,180.0*
1,1,1.0160,-0.5080,0.5080*
1,1,1.0160,0.5080,0.5080*
1,1,1.0160,0.5080,-0.5080*
1,1,1.0160,-0.5080,-0.5080*
%
%ADD22ROUNDEDRECTD22*%
%ADD23P,2.1994X8X202.5*%
%ADD24C,3.0000*%
G04:AMPARAMS|DCode=25|XSize=8mm|YSize=8mm|CornerRadius=2mm|HoleSize=0mm|Usage=FLASHONLY|Rotation=180.000|XOffset=0mm|YOffset=0mm|HoleType=Round|Shape=RoundedRectangle|*
%AMROUNDEDRECTD25*
21,1,8.0000,4.0000,0,0,180.0*
21,1,4.0000,8.0000,0,0,180.0*
1,1,4.0000,-2.0000,2.0000*
1,1,4.0000,2.0000,2.0000*
1,1,4.0000,2.0000,-2.0000*
1,1,4.0000,-2.0000,-2.0000*
%
%ADD25ROUNDEDRECTD25*%
%ADD26C,1.1000*%
%ADD27C,2.4000*%
%ADD28C,1.0000*%
%ADD29C,3.2000*%
%ADD30C,1.5240*%
%ADD31C,1.5000*%
G04:AMPARAMS|DCode=32|XSize=1.1mm|YSize=1.35mm|CornerRadius=0.1375mm|HoleSize=0mm|Usage=FLASHONLY|Rotation=0.000|XOffset=0mm|YOffset=0mm|HoleType=Round|Shape=RoundedRectangle|*
%AMROUNDEDRECTD32*
21,1,1.1000,1.0750,0,0,0.0*
21,1,0.8250,1.3500,0,0,0.0*
1,1,0.2750,0.4125,-0.5375*
1,1,0.2750,-0.4125,-0.5375*
1,1,0.2750,-0.4125,0.5375*
1,1,0.2750,0.4125,0.5375*
%
%ADD32ROUNDEDRECTD32*%
G04:AMPARAMS|DCode=33|XSize=0.6mm|YSize=0.9mm|CornerRadius=0.15mm|HoleSize=0mm|Usage=FLASHONLY|Rotation=0.000|XOffset=0mm|YOffset=0mm|HoleType=Round|Shape=RoundedRectangle|*
%AMROUNDEDRECTD33*
21,1,0.6000,0.6000,0,0,0.0*
21,1,0.3000,0.9000,0,0,0.0*
1,1,0.3000,0.1500,-0.3000*
1,1,0.3000,-0.1500,-0.3000*
1,1,0.3000,-0.1500,0.3000*
1,1,0.3000,0.1500,0.3000*
%
%ADD33ROUNDEDRECTD33*%
G04:AMPARAMS|DCode=34|XSize=0.6mm|YSize=1.9mm|CornerRadius=0.15mm|HoleSize=0mm|Usage=FLASHONLY|Rotation=180.000|XOffset=0mm|YOffset=0mm|HoleType=Round|Shape=RoundedRectangle|*
%AMROUNDEDRECTD34*
21,1,0.6000,1.6000,0,0,180.0*
21,1,0.3000,1.9000,0,0,180.0*
1,1,0.3000,-0.1500,0.8000*
1,1,0.3000,0.1500,0.8000*
1,1,0.3000,0.1500,-0.8000*
1,1,0.3000,-0.1500,-0.8000*
%
%ADD34ROUNDEDRECTD34*%
%ADD35R,1.2000X0.3000*%
%ADD36R,2.4000X2.4000*%
%ADD37C,0.5000*%
G36*
X995000Y770000D02*
Y30000D01*
X970000Y5000D01*
X30000D01*
X5000Y30000D01*
Y770000D01*
X30000Y795000D01*
X503833D01*
X504287Y793730D01*
X502355Y792145D01*
X500043Y789328D01*
X498326Y786114D01*
X497268Y782627D01*
X496911Y779000D01*
X497268Y775373D01*
X498326Y771886D01*
X500043Y768672D01*
X502355Y765855D01*
X505172Y763543D01*
X508386Y761825D01*
X509014Y761635D01*
Y760365D01*
X508386Y760174D01*
X505172Y758457D01*
X502355Y756145D01*
X500043Y753328D01*
X498326Y750114D01*
X497268Y746627D01*
X496911Y743000D01*
X497268Y739373D01*
X498326Y735886D01*
X500043Y732672D01*
X502355Y729855D01*
X505172Y727543D01*
X508386Y725826D01*
X511873Y724768D01*
X515500Y724410D01*
X528500D01*
X532127Y724768D01*
X535614Y725826D01*
X538828Y727543D01*
X541645Y729855D01*
X543957Y732672D01*
X545674Y735886D01*
X546732Y739373D01*
X547090Y743000D01*
X546732Y746627D01*
X545674Y750114D01*
X543957Y753328D01*
X541645Y756145D01*
X538828Y758457D01*
X535614Y760174D01*
X534986Y760365D01*
Y761635D01*
X535614Y761825D01*
X538828Y763543D01*
X541645Y765855D01*
X543957Y768672D01*
X545674Y771886D01*
X546732Y775373D01*
X547090Y779000D01*
X546732Y782627D01*
X545674Y786114D01*
X543957Y789328D01*
X541645Y792145D01*
X539713Y793730D01*
X540168Y795000D01*
X620175D01*
X620493Y793730D01*
X618277Y792545D01*
X615079Y789921D01*
X612455Y786723D01*
X610505Y783075D01*
X609304Y779117D01*
X608898Y775000D01*
X609304Y770883D01*
X610505Y766925D01*
X612455Y763277D01*
X615079Y760079D01*
X618277Y757455D01*
X621925Y755505D01*
X625883Y754304D01*
X630000Y753898D01*
X634117Y754304D01*
X638075Y755505D01*
X641723Y757455D01*
X644921Y760079D01*
X647545Y763277D01*
X649495Y766925D01*
X650696Y770883D01*
X651102Y775000D01*
X650696Y779117D01*
X649495Y783075D01*
X647545Y786723D01*
X644921Y789921D01*
X641723Y792545D01*
X639507Y793730D01*
X639825Y795000D01*
X970000D01*
X995000Y770000D01*
D02*
G37*
%LPC*%
G36*
X635080Y748056D02*
X624920D01*
X622028Y747675D01*
X619332Y746558D01*
X617018Y744782D01*
X615784Y743174D01*
X614216D01*
X612982Y744782D01*
X610668Y746558D01*
X607972Y747675D01*
X605080Y748056D01*
X594920D01*
X592028Y747675D01*
X589332Y746558D01*
X587018Y744782D01*
X585242Y742468D01*
X584125Y739772D01*
X583744Y736880D01*
Y726720D01*
X584125Y723828D01*
X585242Y721132D01*
X587018Y718818D01*
X589332Y717042D01*
X592028Y715925D01*
X594920Y715544D01*
X605080D01*
X607972Y715925D01*
X610668Y717042D01*
X612982Y718818D01*
X614216Y720426D01*
X615784D01*
X617018Y718818D01*
X619332Y717042D01*
X622028Y715925D01*
X624920Y715544D01*
X635080D01*
X637972Y715925D01*
X640668Y717042D01*
X642982Y718818D01*
X644758Y721132D01*
X645875Y723828D01*
X646086Y725432D01*
X647368Y725442D01*
X653670Y719140D01*
X658750D01*
Y731800D01*
Y744460D01*
X653670D01*
X647368Y738158D01*
X646086Y738169D01*
X645875Y739772D01*
X644758Y742468D01*
X642982Y744782D01*
X640668Y746558D01*
X637972Y747675D01*
X635080Y748056D01*
D02*
G37*
G36*
X666330Y744460D02*
X661250D01*
Y733050D01*
X672660D01*
Y738130D01*
X666330Y744460D01*
D02*
G37*
G36*
X949999Y772106D02*
X945686Y771681D01*
X941539Y770423D01*
X937718Y768380D01*
X934368Y765631D01*
X931618Y762281D01*
X929576Y758459D01*
X928317Y754312D01*
X927893Y749999D01*
X928317Y745686D01*
X929576Y741539D01*
X931618Y737718D01*
X934368Y734368D01*
X937718Y731618D01*
X941539Y729576D01*
X945686Y728317D01*
X949999Y727893D01*
X954312Y728317D01*
X958459Y729576D01*
X962281Y731618D01*
X965631Y734368D01*
X968380Y737718D01*
X970423Y741539D01*
X971681Y745686D01*
X972106Y749999D01*
X971681Y754312D01*
X970423Y758459D01*
X968380Y762281D01*
X965631Y765631D01*
X962281Y768380D01*
X958459Y770423D01*
X954312Y771681D01*
X949999Y772106D01*
D02*
G37*
G36*
X49999D02*
X45686Y771681D01*
X41539Y770423D01*
X37717Y768380D01*
X34368Y765631D01*
X31618Y762281D01*
X29576Y758459D01*
X28317Y754312D01*
X27893Y749999D01*
X28317Y745686D01*
X29576Y741539D01*
X31618Y737718D01*
X34368Y734368D01*
X37717Y731618D01*
X41539Y729576D01*
X45686Y728317D01*
X49999Y727893D01*
X54312Y728317D01*
X58459Y729576D01*
X62281Y731618D01*
X65631Y734368D01*
X68380Y737718D01*
X70423Y741539D01*
X71681Y745686D01*
X72106Y749999D01*
X71681Y754312D01*
X70423Y758459D01*
X68380Y762281D01*
X65631Y765631D01*
X62281Y768380D01*
X58459Y770423D01*
X54312Y771681D01*
X49999Y772106D01*
D02*
G37*
G36*
X672660Y730550D02*
X661250D01*
Y719140D01*
X666330D01*
X672660Y725470D01*
Y730550D01*
D02*
G37*
G36*
X91500Y717030D02*
X86250D01*
Y703207D01*
X106449D01*
X106283Y704898D01*
X105425Y707726D01*
X104032Y710331D01*
X102158Y712615D01*
X99874Y714490D01*
X97268Y715883D01*
X94440Y716740D01*
X91500Y717030D01*
D02*
G37*
G36*
X83750D02*
X78500D01*
X75560Y716740D01*
X72732Y715883D01*
X70126Y714490D01*
X67842Y712615D01*
X65968Y710331D01*
X64575Y707726D01*
X63717Y704898D01*
X63551Y703207D01*
X83750D01*
Y717030D01*
D02*
G37*
G36*
X661250Y705922D02*
Y697250D01*
X669922D01*
X669743Y698611D01*
X668735Y701043D01*
X667132Y703132D01*
X665043Y704735D01*
X662610Y705743D01*
X661250Y705922D01*
D02*
G37*
G36*
X658750D02*
X657390Y705743D01*
X654957Y704735D01*
X652868Y703132D01*
X651265Y701043D01*
X650257Y698611D01*
X650078Y697250D01*
X658750D01*
Y705922D01*
D02*
G37*
G36*
X106449Y700707D02*
X86250D01*
Y686885D01*
X91500D01*
X94440Y687175D01*
X97268Y688032D01*
X99874Y689425D01*
X102158Y691300D01*
X104032Y693584D01*
X105425Y696189D01*
X106283Y699017D01*
X106449Y700707D01*
D02*
G37*
G36*
X83750D02*
X63551D01*
X63717Y699017D01*
X64575Y696189D01*
X65968Y693584D01*
X67842Y691300D01*
X70126Y689425D01*
X72732Y688032D01*
X75560Y687175D01*
X78500Y686885D01*
X83750D01*
Y700707D01*
D02*
G37*
G36*
X669922Y694750D02*
X661250D01*
Y686078D01*
X662610Y686257D01*
X665043Y687265D01*
X667132Y688868D01*
X668735Y690957D01*
X669743Y693390D01*
X669922Y694750D01*
D02*
G37*
G36*
X658750D02*
X650078D01*
X650257Y693390D01*
X651265Y690957D01*
X652868Y688868D01*
X654957Y687265D01*
X657390Y686257D01*
X658750Y686078D01*
Y694750D01*
D02*
G37*
G36*
X150000Y776237D02*
X146445Y775769D01*
X143131Y774397D01*
X140286Y772214D01*
X138103Y769369D01*
X136731Y766056D01*
X136263Y762500D01*
X136731Y758944D01*
X138103Y755631D01*
X140286Y752786D01*
X142989Y750713D01*
X143066Y750000D01*
X142989Y749287D01*
X140286Y747214D01*
X138103Y744369D01*
X136731Y741056D01*
X136263Y737500D01*
X136731Y733944D01*
X138103Y730631D01*
X140286Y727786D01*
X141679Y726717D01*
Y720410D01*
X139873Y720232D01*
X136386Y719174D01*
X133172Y717457D01*
X130355Y715145D01*
X128043Y712328D01*
X126326Y709114D01*
X125268Y705627D01*
X124910Y702000D01*
X125268Y698373D01*
X126326Y694886D01*
X128043Y691672D01*
X130355Y688855D01*
X133172Y686543D01*
X136386Y684826D01*
X139873Y683768D01*
X143500Y683410D01*
X156500D01*
X160127Y683768D01*
X163614Y684826D01*
X166828Y686543D01*
X169645Y688855D01*
X171957Y691672D01*
X173675Y694886D01*
X174732Y698373D01*
X175089Y702000D01*
X174732Y705627D01*
X173675Y709114D01*
X171957Y712328D01*
X169645Y715145D01*
X166828Y717457D01*
X163614Y719174D01*
X160127Y720232D01*
X158321Y720410D01*
Y726717D01*
X159714Y727786D01*
X160783Y729179D01*
X179113D01*
X179433Y728406D01*
X180615Y726865D01*
X181679Y726049D01*
Y724000D01*
X181962Y721846D01*
X182794Y719839D01*
X184116Y718116D01*
X188116Y714116D01*
X189839Y712794D01*
X191846Y711962D01*
X194000Y711679D01*
X194000Y711679D01*
X225220D01*
X225926Y710623D01*
X225296Y709102D01*
X224901Y706100D01*
X225296Y703098D01*
X226455Y700300D01*
X228298Y697898D01*
X230700Y696055D01*
X233498Y694896D01*
X236500Y694501D01*
X239502Y694896D01*
X242300Y696055D01*
X244702Y697898D01*
X246545Y700300D01*
X247704Y703098D01*
X248099Y706100D01*
X247704Y709102D01*
X247074Y710623D01*
X247780Y711679D01*
X371053Y711679D01*
X416229Y666503D01*
Y607048D01*
X415056Y606562D01*
X391234Y630384D01*
X389511Y631706D01*
X387504Y632538D01*
X385350Y632821D01*
X216260D01*
X215659Y634091D01*
X216957Y635672D01*
X218674Y638886D01*
X219732Y642373D01*
X220089Y646000D01*
X219732Y649627D01*
X218674Y653114D01*
X216957Y656328D01*
X214645Y659145D01*
X211828Y661457D01*
X208614Y663175D01*
X205127Y664232D01*
X201500Y664589D01*
X188500D01*
X184873Y664232D01*
X181386Y663175D01*
X178172Y661457D01*
X175355Y659145D01*
X173043Y656328D01*
X171325Y653114D01*
X170268Y649627D01*
X169911Y646000D01*
X170268Y642373D01*
X171325Y638886D01*
X173043Y635672D01*
X174341Y634091D01*
X173740Y632821D01*
X149451D01*
X148635Y633885D01*
X147094Y635067D01*
X145300Y635810D01*
X143375Y636064D01*
X132625D01*
X130700Y635810D01*
X128906Y635067D01*
X127365Y633885D01*
X126357Y632571D01*
X123527D01*
X122958Y632807D01*
X121000Y633065D01*
X115000D01*
X113042Y632807D01*
X111218Y632051D01*
X109651Y630849D01*
X108449Y629282D01*
X107693Y627458D01*
X107435Y625500D01*
Y622500D01*
X107693Y620542D01*
X108449Y618718D01*
X109651Y617151D01*
X111218Y615949D01*
X113042Y615193D01*
X115000Y614935D01*
X121000D01*
X122958Y615193D01*
X124734Y615929D01*
X126741D01*
X127365Y615115D01*
X128906Y613933D01*
X130389Y613319D01*
X130629Y612392D01*
X130587Y611924D01*
X129831Y611419D01*
X128975Y610137D01*
X128674Y608625D01*
Y605750D01*
X138000D01*
Y603250D01*
X128674D01*
Y600375D01*
X128975Y598863D01*
X129169Y598572D01*
X128693Y597000D01*
X128192Y596792D01*
X125372Y594628D01*
X123208Y591808D01*
X121847Y588524D01*
X121384Y585000D01*
X120381Y584062D01*
X119926Y584080D01*
X119452Y584245D01*
X118385Y585635D01*
X116844Y586817D01*
X115050Y587560D01*
X113125Y587814D01*
X104875D01*
X102950Y587560D01*
X101156Y586817D01*
X99848Y585814D01*
X99000Y585690D01*
X98152Y585814D01*
X96844Y586817D01*
X95050Y587560D01*
X93125Y587814D01*
X84875D01*
X82950Y587560D01*
X81156Y586817D01*
X79615Y585635D01*
X78433Y584094D01*
X78113Y583321D01*
X73694D01*
X73368Y583932D01*
X71368Y586368D01*
X68932Y588368D01*
X66153Y589854D01*
X63137Y590769D01*
X60000Y591077D01*
X56863Y590769D01*
X53847Y589854D01*
X51068Y588368D01*
X48632Y586368D01*
X46632Y583932D01*
X45146Y581153D01*
X44232Y578136D01*
X43923Y575000D01*
X44232Y571863D01*
X45146Y568847D01*
X46632Y566068D01*
X48632Y563632D01*
X51068Y561632D01*
X53847Y560146D01*
X56863Y559231D01*
X60000Y558923D01*
X63137Y559231D01*
X66153Y560146D01*
X68932Y561632D01*
X71368Y563632D01*
X73368Y566068D01*
X73694Y566679D01*
X78113D01*
X78433Y565906D01*
X79615Y564365D01*
X81156Y563183D01*
X82950Y562440D01*
X84875Y562186D01*
X93125D01*
X95050Y562440D01*
X96844Y563183D01*
X98152Y564186D01*
X99000Y564310D01*
X99848Y564186D01*
X101156Y563183D01*
X102950Y562440D01*
X104875Y562186D01*
X113125D01*
X115050Y562440D01*
X116844Y563183D01*
X118385Y564365D01*
X119567Y565906D01*
X119887Y566679D01*
X124847D01*
X127001Y566962D01*
X129008Y567794D01*
X130731Y569116D01*
X132899Y571284D01*
X133772Y571113D01*
X134191Y569809D01*
X91954Y527572D01*
X89777Y528232D01*
X86150Y528590D01*
X73150D01*
X69523Y528232D01*
X66036Y527174D01*
X62822Y525457D01*
X60005Y523145D01*
X57693Y520328D01*
X55975Y517114D01*
X54918Y513627D01*
X54560Y510000D01*
X54918Y506373D01*
X55975Y502886D01*
X57693Y499672D01*
X60005Y496855D01*
X62822Y494543D01*
X66036Y492826D01*
X69523Y491768D01*
X73150Y491410D01*
X86150D01*
X89777Y491768D01*
X93264Y492826D01*
X96478Y494543D01*
X99295Y496855D01*
X101607Y499672D01*
X103324Y502886D01*
X104382Y506373D01*
X104740Y510000D01*
X104382Y513627D01*
X103722Y515804D01*
X197597Y609679D01*
X310971D01*
X311677Y608623D01*
X311257Y607611D01*
X311078Y606250D01*
X330922D01*
X330743Y607611D01*
X330323Y608623D01*
X331029Y609679D01*
X376703D01*
X390829Y595553D01*
Y588630D01*
X389559Y587853D01*
X387950Y588065D01*
X384950D01*
X382992Y587807D01*
X381168Y587051D01*
X380409Y587254D01*
X380083Y588042D01*
X378921Y589557D01*
X378921Y589557D01*
X374307Y594171D01*
X372792Y595333D01*
X371029Y596063D01*
X369136Y596312D01*
X369136Y596312D01*
X358000D01*
X358000Y596312D01*
X356107Y596063D01*
X354344Y595333D01*
X352829Y594171D01*
X352829Y594171D01*
X349629Y590971D01*
X348467Y589456D01*
X347737Y587693D01*
X347487Y585800D01*
X347487Y585800D01*
Y584578D01*
X346850D01*
X345289Y584268D01*
X344808Y583946D01*
X343701Y584282D01*
X342499Y585849D01*
X340932Y587051D01*
X339108Y587807D01*
X337150Y588065D01*
X334150D01*
X332192Y587807D01*
X330368Y587051D01*
X329300Y586232D01*
X328232Y587051D01*
X326408Y587807D01*
X324450Y588065D01*
X321450D01*
X319492Y587807D01*
X317668Y587051D01*
X316600Y586232D01*
X315532Y587051D01*
X313708Y587807D01*
X311750Y588065D01*
X308750D01*
X306792Y587807D01*
X304968Y587051D01*
X303900Y586232D01*
X302832Y587051D01*
X301008Y587807D01*
X299050Y588065D01*
X296050D01*
X294092Y587807D01*
X292268Y587051D01*
X291200Y586232D01*
X290132Y587051D01*
X288308Y587807D01*
X286350Y588065D01*
X283350D01*
X281392Y587807D01*
X279568Y587051D01*
X278500Y586232D01*
X277432Y587051D01*
X275608Y587807D01*
X273650Y588065D01*
X270650D01*
X268692Y587807D01*
X266868Y587051D01*
X265800Y586232D01*
X264732Y587051D01*
X262908Y587807D01*
X260950Y588065D01*
X257950D01*
X255992Y587807D01*
X254168Y587051D01*
X252601Y585849D01*
X251399Y584282D01*
X250643Y582458D01*
X250385Y580500D01*
Y568703D01*
X123125Y441443D01*
X121803Y439720D01*
X121173Y438199D01*
X120192Y437792D01*
X117372Y435628D01*
X115208Y432808D01*
X113848Y429524D01*
X113384Y426000D01*
X113848Y422476D01*
X115208Y419192D01*
X117372Y416372D01*
X120192Y414208D01*
X123476Y412848D01*
X127000Y412384D01*
X130524Y412848D01*
X133808Y414208D01*
X136628Y416372D01*
X138792Y419192D01*
X140153Y422476D01*
X140616Y426000D01*
X140153Y429524D01*
X138792Y432808D01*
X138460Y433242D01*
X262336Y557118D01*
X262908Y557193D01*
X263567Y557466D01*
X264837Y556618D01*
Y540000D01*
X264837Y540000D01*
X265087Y538107D01*
X265817Y536344D01*
X266979Y534829D01*
X291065Y510743D01*
X291020Y510626D01*
X290495Y509517D01*
X288844Y508833D01*
X287329Y507671D01*
X287329Y507671D01*
X279829Y500171D01*
X278667Y498656D01*
X278152Y497412D01*
X276906Y497046D01*
X276689Y497079D01*
X272884Y500884D01*
X271161Y502206D01*
X269154Y503038D01*
X267000Y503321D01*
X252000D01*
X249846Y503038D01*
X247839Y502206D01*
X246116Y500884D01*
X128633Y383401D01*
X127000Y383616D01*
X124331Y383265D01*
X123451Y383881D01*
X123126Y384290D01*
X123115Y384326D01*
X122789Y387629D01*
X121760Y391022D01*
X120089Y394149D01*
X117839Y396889D01*
X115099Y399139D01*
X111972Y400810D01*
X108579Y401840D01*
X105050Y402187D01*
X101521Y401840D01*
X98128Y400810D01*
X95001Y399139D01*
X92261Y396889D01*
X90011Y394149D01*
X88941Y392147D01*
X87535Y391951D01*
X87423Y392001D01*
X85197Y393708D01*
X82522Y394817D01*
X79650Y395195D01*
X76778Y394817D01*
X74103Y393708D01*
X71877Y392001D01*
X71765Y391951D01*
X70359Y392147D01*
X69289Y394149D01*
X67039Y396889D01*
X64299Y399139D01*
X61172Y400810D01*
X57779Y401840D01*
X54250Y402187D01*
X50721Y401840D01*
X47328Y400810D01*
X44201Y399139D01*
X41460Y396889D01*
X39211Y394149D01*
X37540Y391022D01*
X36510Y387629D01*
X36163Y384100D01*
X36510Y380571D01*
X37540Y377178D01*
X39211Y374051D01*
X41460Y371311D01*
X44201Y369061D01*
X44578Y368860D01*
Y367590D01*
X44201Y367389D01*
X41460Y365140D01*
X39211Y362399D01*
X37540Y359272D01*
X36510Y355879D01*
X36163Y352350D01*
X36510Y348821D01*
X37540Y345428D01*
X39211Y342301D01*
X41460Y339561D01*
X44201Y337311D01*
X47328Y335640D01*
X50721Y334610D01*
X54250Y334263D01*
X57280Y334561D01*
X58439Y333633D01*
X58395Y333300D01*
X58773Y330428D01*
X59882Y327753D01*
X61645Y325455D01*
X63942Y323692D01*
X66618Y322583D01*
X69490Y322205D01*
X72362Y322583D01*
X75037Y323692D01*
X77335Y325455D01*
X78922Y327523D01*
X79601Y327645D01*
X79699D01*
X80378Y327523D01*
X81965Y325455D01*
X84263Y323692D01*
X86938Y322583D01*
X89810Y322205D01*
X92682Y322583D01*
X95357Y323692D01*
X97655Y325455D01*
X99418Y327753D01*
X100527Y330428D01*
X100905Y333300D01*
X100861Y333633D01*
X102020Y334561D01*
X105050Y334263D01*
X108579Y334610D01*
X111972Y335640D01*
X115099Y337311D01*
X117839Y339561D01*
X120089Y342301D01*
X121760Y345428D01*
X122789Y348821D01*
X123137Y352350D01*
X122802Y355752D01*
X123003Y356079D01*
X123837Y356800D01*
X127000Y356384D01*
X130524Y356847D01*
X133808Y358208D01*
X136628Y360372D01*
X138792Y363192D01*
X140153Y366476D01*
X140616Y370000D01*
X140401Y371633D01*
X249212Y480444D01*
X250385Y479958D01*
Y469500D01*
X250643Y467542D01*
X251129Y466369D01*
Y457897D01*
X128633Y335401D01*
X127000Y335616D01*
X123476Y335153D01*
X120192Y333792D01*
X117372Y331628D01*
X115208Y328808D01*
X113848Y325524D01*
X113384Y322000D01*
X113848Y318476D01*
X115208Y315192D01*
X117372Y312372D01*
X120192Y310208D01*
X123476Y308848D01*
X127000Y308384D01*
X130524Y308848D01*
X133808Y310208D01*
X136628Y312372D01*
X138792Y315192D01*
X140153Y318476D01*
X140616Y322000D01*
X140401Y323633D01*
X265334Y448566D01*
X265334Y448566D01*
X266656Y450289D01*
X267488Y452296D01*
X267771Y454450D01*
Y461370D01*
X269041Y462147D01*
X270650Y461935D01*
X273650D01*
X275608Y462193D01*
X277432Y462949D01*
X278500Y463768D01*
X279568Y462949D01*
X281392Y462193D01*
X283350Y461935D01*
X286350D01*
X288308Y462193D01*
X290132Y462949D01*
X291200Y463768D01*
X292268Y462949D01*
X294092Y462193D01*
X296050Y461935D01*
X299050D01*
X301008Y462193D01*
X301667Y462466D01*
X302937Y461618D01*
Y441750D01*
X302937Y441750D01*
X303187Y439857D01*
X303917Y438094D01*
X305079Y436579D01*
X339329Y402329D01*
X339329Y402329D01*
X340844Y401167D01*
X342607Y400437D01*
X344500Y400187D01*
X500145Y400187D01*
X500397Y398917D01*
X499957Y398735D01*
X497868Y397132D01*
X496265Y395043D01*
X495257Y392611D01*
X495078Y391250D01*
X514922D01*
X514743Y392611D01*
X513735Y395043D01*
X512132Y397132D01*
X510043Y398735D01*
X509603Y398918D01*
X509855Y400187D01*
X546808D01*
X548000Y398917D01*
Y395000D01*
X559052D01*
X560000Y394875D01*
X567687D01*
X567688Y394875D01*
X567730Y394881D01*
X569000Y393855D01*
Y363500D01*
X605000D01*
Y399500D01*
X577081D01*
X576509Y400770D01*
X577333Y401844D01*
X578063Y403607D01*
X578313Y405500D01*
X578312Y405500D01*
Y563000D01*
X578313Y563000D01*
X578312Y563000D01*
Y590000D01*
X578313Y590000D01*
X578063Y591893D01*
X577333Y593656D01*
X576171Y595171D01*
X576171Y595171D01*
X573671Y597671D01*
X572156Y598833D01*
X572000Y598898D01*
Y600600D01*
X605000D01*
Y636600D01*
X569000D01*
Y605000D01*
X548000D01*
Y603001D01*
X546827Y602515D01*
X537671Y611671D01*
X536156Y612833D01*
X534393Y613563D01*
X532500Y613813D01*
X532500Y613812D01*
X522644D01*
X521849Y614849D01*
X520282Y616051D01*
X518458Y616807D01*
X517886Y616882D01*
X366384Y768384D01*
X364661Y769706D01*
X362654Y770538D01*
X360500Y770821D01*
X160783D01*
X159714Y772214D01*
X156869Y774397D01*
X153555Y775769D01*
X150000Y776237D01*
D02*
G37*
G36*
X121000Y610578D02*
X119250D01*
Y606250D01*
X125078D01*
Y606500D01*
X124768Y608061D01*
X123884Y609384D01*
X122561Y610268D01*
X121000Y610578D01*
D02*
G37*
G36*
X116750D02*
X115000D01*
X113439Y610268D01*
X112116Y609384D01*
X111232Y608061D01*
X110922Y606500D01*
Y606250D01*
X116750D01*
Y610578D01*
D02*
G37*
G36*
X60000Y631077D02*
X56863Y630769D01*
X53847Y629854D01*
X51068Y628368D01*
X48632Y626368D01*
X46632Y623932D01*
X45146Y621153D01*
X44232Y618137D01*
X43923Y615000D01*
X44232Y611864D01*
X45146Y608847D01*
X46632Y606068D01*
X48632Y603632D01*
X51068Y601632D01*
X53847Y600146D01*
X56863Y599231D01*
X60000Y598923D01*
X63137Y599231D01*
X66153Y600146D01*
X68932Y601632D01*
X71368Y603632D01*
X73368Y606068D01*
X73561Y606429D01*
X88266D01*
X90042Y605693D01*
X92000Y605435D01*
X98000D01*
X99958Y605693D01*
X101782Y606449D01*
X103349Y607651D01*
X104551Y609218D01*
X105307Y611042D01*
X105565Y613000D01*
Y616000D01*
X105307Y617958D01*
X104551Y619782D01*
X103349Y621349D01*
X101782Y622551D01*
X99958Y623307D01*
X98000Y623565D01*
X92000D01*
X90042Y623307D01*
X89473Y623071D01*
X73828D01*
X73368Y623932D01*
X71368Y626368D01*
X68932Y628368D01*
X66153Y629854D01*
X63137Y630769D01*
X60000Y631077D01*
D02*
G37*
G36*
X125078Y603750D02*
X119250D01*
Y599422D01*
X121000D01*
X122561Y599732D01*
X123884Y600616D01*
X124768Y601939D01*
X125078Y603500D01*
Y603750D01*
D02*
G37*
G36*
X116750D02*
X110922D01*
Y603500D01*
X111232Y601939D01*
X112116Y600616D01*
X113439Y599732D01*
X115000Y599422D01*
X116750D01*
Y603750D01*
D02*
G37*
G36*
X330922Y603750D02*
X322250D01*
Y595078D01*
X323610Y595257D01*
X326043Y596265D01*
X328132Y597868D01*
X329735Y599957D01*
X330743Y602389D01*
X330922Y603750D01*
D02*
G37*
G36*
X319750D02*
X311078D01*
X311257Y602389D01*
X312265Y599957D01*
X313868Y597868D01*
X315957Y596265D01*
X318389Y595257D01*
X319750Y595078D01*
Y603750D01*
D02*
G37*
G36*
X514922Y388750D02*
X506250D01*
Y380078D01*
X507611Y380257D01*
X510043Y381265D01*
X512132Y382868D01*
X513735Y384957D01*
X514743Y387389D01*
X514922Y388750D01*
D02*
G37*
G36*
X503750D02*
X495078D01*
X495257Y387389D01*
X496265Y384957D01*
X497868Y382868D01*
X499957Y381265D01*
X502389Y380257D01*
X503750Y380078D01*
Y388750D01*
D02*
G37*
G36*
X19250Y377922D02*
Y369250D01*
X27922D01*
X27743Y370611D01*
X26735Y373043D01*
X25132Y375132D01*
X23043Y376735D01*
X20610Y377743D01*
X19250Y377922D01*
D02*
G37*
G36*
X16750D02*
X15389Y377743D01*
X12957Y376735D01*
X10868Y375132D01*
X9265Y373043D01*
X8257Y370611D01*
X8078Y369250D01*
X16750D01*
Y377922D01*
D02*
G37*
G36*
X27922Y366750D02*
X19250D01*
Y358078D01*
X20610Y358257D01*
X23043Y359265D01*
X25132Y360868D01*
X26735Y362957D01*
X27743Y365390D01*
X27922Y366750D01*
D02*
G37*
G36*
X16750D02*
X8078D01*
X8257Y365390D01*
X9265Y362957D01*
X10868Y360868D01*
X12957Y359265D01*
X15389Y358257D01*
X16750Y358078D01*
Y366750D01*
D02*
G37*
G36*
X835000Y696117D02*
X817000D01*
X814659Y695652D01*
X812674Y694326D01*
X811348Y692341D01*
X810882Y690000D01*
X810882Y320000D01*
X811348Y317659D01*
X812674Y315674D01*
X814659Y314348D01*
X817000Y313883D01*
X835000D01*
X837341Y314348D01*
X839326Y315674D01*
X840652Y317659D01*
X841118Y320000D01*
X841117Y320000D01*
Y690000D01*
X840652Y692341D01*
X839326Y694326D01*
X837341Y695652D01*
X835000Y696117D01*
D02*
G37*
G36*
X824100Y305499D02*
X821098Y305104D01*
X818300Y303945D01*
X815898Y302102D01*
X814055Y299700D01*
X812896Y296902D01*
X812501Y293900D01*
X812896Y290898D01*
X814055Y288100D01*
X815898Y285698D01*
X818300Y283855D01*
X821098Y282696D01*
X824100Y282301D01*
X827102Y282696D01*
X829900Y283855D01*
X832302Y285698D01*
X834145Y288100D01*
X835304Y290898D01*
X835699Y293900D01*
X835304Y296902D01*
X834145Y299700D01*
X832302Y302102D01*
X829900Y303945D01*
X827102Y305104D01*
X824100Y305499D01*
D02*
G37*
G36*
X236500D02*
X233498Y305104D01*
X230700Y303945D01*
X228298Y302102D01*
X226455Y299700D01*
X225296Y296902D01*
X224901Y293900D01*
X225296Y290898D01*
X226455Y288100D01*
X228298Y285698D01*
X230700Y283855D01*
X233498Y282696D01*
X236500Y282301D01*
X239502Y282696D01*
X242300Y283855D01*
X244702Y285698D01*
X246545Y288100D01*
X247704Y290898D01*
X248099Y293900D01*
X247704Y296902D01*
X246545Y299700D01*
X244702Y302102D01*
X242300Y303945D01*
X239502Y305104D01*
X236500Y305499D01*
D02*
G37*
G36*
X436990Y178493D02*
X393000D01*
Y164493D01*
X436990D01*
Y178493D01*
D02*
G37*
G36*
X591990Y193488D02*
X548000D01*
Y149498D01*
X591990D01*
Y193488D01*
D02*
G37*
G36*
X716000Y216639D02*
X640000D01*
X634903Y216137D01*
X630002Y214650D01*
X625485Y212236D01*
X621526Y208987D01*
X618277Y205028D01*
X615863Y200511D01*
X614376Y195610D01*
X613874Y190513D01*
Y150513D01*
X614376Y145416D01*
X615863Y140515D01*
X618277Y135999D01*
X621526Y132040D01*
X625485Y128791D01*
X630002Y126376D01*
X634903Y124889D01*
X640000Y124388D01*
X716000D01*
X721097Y124889D01*
X725998Y126376D01*
X730515Y128791D01*
X734474Y132040D01*
X737723Y135999D01*
X740137Y140515D01*
X741624Y145416D01*
X742126Y150513D01*
Y190513D01*
X741624Y195610D01*
X740137Y200511D01*
X737723Y205028D01*
X734474Y208987D01*
X730515Y212236D01*
X725998Y214650D01*
X721097Y216137D01*
X716000Y216639D01*
D02*
G37*
G36*
X360000D02*
X284000D01*
X278903Y216137D01*
X274002Y214650D01*
X269485Y212236D01*
X265526Y208987D01*
X262277Y205028D01*
X259863Y200511D01*
X258376Y195610D01*
X257874Y190513D01*
Y150513D01*
X258376Y145416D01*
X259863Y140515D01*
X262277Y135999D01*
X265526Y132040D01*
X269485Y128791D01*
X274002Y126376D01*
X278903Y124889D01*
X284000Y124388D01*
X360000D01*
X365097Y124889D01*
X369998Y126376D01*
X374515Y128791D01*
X378474Y132040D01*
X381723Y135999D01*
X384137Y140515D01*
X385624Y145416D01*
X386126Y150513D01*
Y190513D01*
X385624Y195610D01*
X384137Y200511D01*
X381723Y205028D01*
X378474Y208987D01*
X374515Y212236D01*
X369998Y214650D01*
X365097Y216137D01*
X360000Y216639D01*
D02*
G37*
G36*
X606990Y68493D02*
X563000D01*
Y54493D01*
X606990D01*
Y68493D01*
D02*
G37*
G36*
X826250Y60922D02*
Y52250D01*
X834922D01*
X834743Y53611D01*
X833735Y56043D01*
X832132Y58132D01*
X830043Y59735D01*
X827610Y60743D01*
X826250Y60922D01*
D02*
G37*
G36*
X823750D02*
X822390Y60743D01*
X819957Y59735D01*
X817868Y58132D01*
X816265Y56043D01*
X815257Y53611D01*
X815078Y52250D01*
X823750D01*
Y60922D01*
D02*
G37*
G36*
X834922Y49750D02*
X826250D01*
Y41078D01*
X827610Y41257D01*
X830043Y42265D01*
X832132Y43868D01*
X833735Y45957D01*
X834743Y48390D01*
X834922Y49750D01*
D02*
G37*
G36*
X823750D02*
X815078D01*
X815257Y48390D01*
X816265Y45957D01*
X817868Y43868D01*
X819957Y42265D01*
X822390Y41257D01*
X823750Y41078D01*
Y49750D01*
D02*
G37*
G36*
X451990Y83488D02*
X408000D01*
Y39498D01*
X451990D01*
Y83488D01*
D02*
G37*
G36*
X50000Y72106D02*
X45687Y71682D01*
X41540Y70424D01*
X37718Y68381D01*
X34368Y65632D01*
X31619Y62282D01*
X29576Y58460D01*
X28318Y54313D01*
X27894Y50000D01*
X28318Y45687D01*
X29576Y41540D01*
X31619Y37718D01*
X34368Y34368D01*
X37718Y31619D01*
X41540Y29576D01*
X45687Y28318D01*
X50000Y27894D01*
X54313Y28318D01*
X58460Y29576D01*
X62282Y31619D01*
X65632Y34368D01*
X68381Y37718D01*
X70424Y41540D01*
X71682Y45687D01*
X72106Y50000D01*
X71682Y54313D01*
X70424Y58460D01*
X68381Y62282D01*
X65632Y65632D01*
X62282Y68381D01*
X58460Y70424D01*
X54313Y71682D01*
X50000Y72106D01*
D02*
G37*
G36*
X949999Y72106D02*
X945686Y71681D01*
X941539Y70423D01*
X937718Y68380D01*
X934368Y65631D01*
X931618Y62281D01*
X929576Y58459D01*
X928317Y54312D01*
X927893Y49999D01*
X928317Y45686D01*
X929576Y41539D01*
X931618Y37717D01*
X934368Y34368D01*
X937718Y31618D01*
X941539Y29576D01*
X945686Y28317D01*
X949999Y27893D01*
X954312Y28317D01*
X958459Y29576D01*
X962281Y31618D01*
X965631Y34368D01*
X968380Y37717D01*
X970423Y41539D01*
X971681Y45686D01*
X972106Y49999D01*
X971681Y54312D01*
X970423Y58459D01*
X968380Y62281D01*
X965631Y65631D01*
X962281Y68380D01*
X958459Y70423D01*
X954312Y71681D01*
X949999Y72106D01*
D02*
G37*
G36*
X716000Y106126D02*
X640000D01*
X634903Y105624D01*
X630002Y104137D01*
X625485Y101723D01*
X621526Y98474D01*
X618277Y94515D01*
X615863Y89998D01*
X614376Y85097D01*
X613874Y80000D01*
Y40000D01*
X614376Y34903D01*
X615863Y30002D01*
X618277Y25485D01*
X621526Y21526D01*
X625485Y18277D01*
X630002Y15863D01*
X634903Y14376D01*
X640000Y13874D01*
X716000D01*
X721097Y14376D01*
X725998Y15863D01*
X730515Y18277D01*
X734474Y21526D01*
X737723Y25485D01*
X740137Y30002D01*
X741624Y34903D01*
X742126Y40000D01*
Y80000D01*
X741624Y85097D01*
X740137Y89998D01*
X737723Y94515D01*
X734474Y98474D01*
X730515Y101723D01*
X725998Y104137D01*
X721097Y105624D01*
X716000Y106126D01*
D02*
G37*
G36*
X360000D02*
X284000D01*
X278903Y105624D01*
X274002Y104137D01*
X269485Y101723D01*
X265526Y98474D01*
X262277Y94515D01*
X259863Y89998D01*
X258376Y85097D01*
X257874Y80000D01*
Y40000D01*
X258376Y34903D01*
X259863Y30002D01*
X262277Y25485D01*
X265526Y21526D01*
X269485Y18277D01*
X274002Y15863D01*
X278903Y14376D01*
X284000Y13874D01*
X360000D01*
X365097Y14376D01*
X369998Y15863D01*
X374515Y18277D01*
X378474Y21526D01*
X381723Y25485D01*
X384137Y30002D01*
X385624Y34903D01*
X386126Y40000D01*
Y80000D01*
X385624Y85097D01*
X384137Y89998D01*
X381723Y94515D01*
X378474Y98474D01*
X374515Y101723D01*
X369998Y104137D01*
X365097Y105624D01*
X360000Y106126D01*
D02*
G37*
%LPD*%
D10*
X138000Y604500D02*
D03*
Y624500D02*
D03*
X495000Y436500D02*
D03*
Y456500D02*
D03*
X516043Y436500D02*
D03*
Y456500D02*
D03*
D11*
X60000Y615000D02*
D03*
Y575000D02*
D03*
D12*
X118000Y624000D02*
D03*
Y605000D02*
D03*
X95000Y614500D02*
D03*
D15*
X18000Y565000D02*
Y634958D01*
Y469000D02*
Y565000D01*
Y368000D02*
Y469000D01*
Y634958D02*
X74577Y691535D01*
Y692488D01*
X84047Y701957D01*
X85000D01*
X524750Y564207D02*
Y583250D01*
X536375Y435875D02*
X537000Y435250D01*
X516668Y435875D02*
X536375D01*
X516043Y436500D02*
X516668Y435875D01*
X630000Y289275D02*
X651533D01*
X535726D02*
X630000D01*
Y666000D01*
X660000Y696000D01*
X210000Y737500D02*
X237000D01*
X194000Y720000D02*
X225000D01*
X190000Y724000D02*
X194000Y720000D01*
X190000Y724000D02*
Y737500D01*
X150000D02*
X190000D01*
X150000Y702000D02*
Y737500D01*
X127000Y468000D02*
X264000Y605000D01*
X321000D01*
X19000Y468000D02*
X127000D01*
X348350Y572500D02*
Y593650D01*
X337000Y605000D02*
X348350Y593650D01*
X321000Y605000D02*
X337000D01*
X455153Y595000D02*
X465000D01*
X445153Y605000D02*
X455153Y595000D01*
X445000Y605000D02*
X445153D01*
X405200Y452250D02*
X469250D01*
X449750Y463750D02*
X450000Y464000D01*
X406400Y463750D02*
X449750D01*
X386450Y471000D02*
X405200Y452250D01*
X469250D02*
X470000Y453000D01*
X472250Y435000D02*
X493750Y456500D01*
X484750Y564207D02*
Y583250D01*
X510778Y597000D02*
X524500D01*
X482778Y625000D02*
X510778Y597000D01*
X505000Y320000D02*
Y390000D01*
Y320000D02*
X535726Y289275D01*
X651533D02*
X740250Y200558D01*
Y135750D02*
Y200558D01*
Y135750D02*
X825000Y51000D01*
X18000Y469000D02*
X19000Y468000D01*
X50000Y597000D02*
X79250D01*
X87250Y605000D01*
X118000D01*
X18000Y565000D02*
X50000Y597000D01*
X134847Y585000D02*
X135000D01*
X124847Y575000D02*
X134847Y585000D01*
X109000Y575000D02*
X124847D01*
X86150Y510000D02*
X194150Y618000D01*
X380150D01*
X79650Y510000D02*
X86150D01*
X138000Y624500D02*
X195000D01*
X137750Y624250D02*
X138000Y624500D01*
X60000Y615000D02*
X60250Y614750D01*
X94750D01*
X95000Y614500D01*
X399150Y572500D02*
Y599000D01*
X399000Y572350D02*
X399150Y572500D01*
X380150Y618000D02*
X399150Y599000D01*
X411850Y572500D02*
Y598000D01*
X195000Y624500D02*
X385350D01*
X411850Y598000D01*
X195000Y624500D02*
Y646000D01*
X60000Y575000D02*
X89000D01*
X118000Y624000D02*
X118250Y624250D01*
X137750D01*
X118000Y605000D02*
X118250Y604750D01*
X137750D01*
X138000Y604500D01*
X524500Y583500D02*
X524750Y583250D01*
X484500Y583500D02*
X484750Y583250D01*
X505000Y563957D02*
Y583000D01*
X505500Y583500D01*
X465000Y563957D02*
X465250Y564207D01*
Y583250D01*
X465500Y583500D01*
X259450Y454450D02*
Y477500D01*
X127000Y322000D02*
X259450Y454450D01*
X127000Y370000D02*
X252000Y495000D01*
X267000D02*
X271400Y490600D01*
Y478250D02*
Y490600D01*
Y478250D02*
X272150Y477500D01*
X252000Y495000D02*
X267000D01*
X127000Y426000D02*
X129009Y428009D01*
Y435559D01*
X259450Y566000D01*
Y572500D01*
X424550D02*
Y669950D01*
X374500Y720000D02*
X424550Y669950D01*
X360500Y762500D02*
X515000Y608000D01*
X150000Y762500D02*
X360500D01*
X465000Y625000D02*
X482778D01*
X494000Y595000D02*
X503250Y585750D01*
X465000Y595000D02*
X494000D01*
X225000Y720000D02*
X374500Y720000D01*
X210000Y737500D02*
X210250Y737250D01*
X515000Y606500D02*
Y608000D01*
X465000Y584000D02*
Y595000D01*
Y584000D02*
X465500Y583500D01*
X393875Y454375D02*
X413000Y435250D01*
X390375Y454375D02*
X393875D01*
X373750Y471000D02*
X390375Y454375D01*
X386450Y471000D02*
Y477500D01*
X373750Y471000D02*
Y477500D01*
X493750Y456500D02*
X495000D01*
X516043D01*
X445000Y435000D02*
X472250D01*
X495000Y436500D02*
X516043D01*
X444500Y434500D02*
X445000Y435000D01*
X413500Y434500D02*
X444500D01*
X413000Y434000D02*
X413500Y434500D01*
X413000Y434000D02*
Y435250D01*
X383000Y435000D02*
X392000D01*
X393000Y434000D01*
X375000Y443000D02*
X383000Y435000D01*
X375000Y443000D02*
Y445000D01*
X361050Y458950D02*
X375000Y445000D01*
X361050Y458950D02*
Y477500D01*
X399150Y471000D02*
X406400Y463750D01*
X399150Y471000D02*
Y477500D01*
X322950D02*
X323000Y477450D01*
X335650Y477500D02*
X336000Y477150D01*
D17*
X552464Y547812D02*
X560000D01*
X551000Y552500D02*
X560000D01*
X548500D02*
X551000D01*
Y549277D02*
X552464Y547812D01*
X551000Y549277D02*
Y552500D01*
X540000Y561000D02*
X548500Y552500D01*
X518500Y547500D02*
X525000Y554000D01*
X394236Y547500D02*
X518500D01*
X386450Y555286D02*
X394236Y547500D01*
X482000Y552000D02*
X484750Y554750D01*
X405000Y552000D02*
X482000D01*
X399000Y558000D02*
X405000Y552000D01*
X549000Y567500D02*
X560000D01*
X547000Y569500D02*
X549000Y567500D01*
X547000Y569500D02*
Y572500D01*
X547500D01*
X547000D02*
Y573000D01*
X524750Y564207D02*
X525000Y563957D01*
Y554000D02*
Y563957D01*
X542864Y452500D02*
X560000D01*
X502364Y493000D02*
X542864Y452500D01*
X541500Y447500D02*
X560000D01*
X511500Y477500D02*
X541500Y447500D01*
X539250Y437500D02*
X549000D01*
X537000Y435250D02*
X539250Y437500D01*
X543978Y457750D02*
X559750D01*
X560000Y457500D01*
X504228Y497500D02*
X543978Y457750D01*
X503728Y498000D02*
X504228Y497500D01*
X549000Y437500D02*
X560000D01*
X551000Y432500D02*
X560000D01*
X549000Y434500D02*
X551000Y432500D01*
X549000Y434500D02*
Y437500D01*
X571000Y405500D02*
Y563000D01*
X545592Y462500D02*
X560000D01*
X505592Y502500D02*
X545592Y462500D01*
X292500Y502500D02*
X505592D01*
X304550Y498000D02*
X503728D01*
X297550Y491000D02*
X304550Y498000D01*
X297550Y477500D02*
Y491000D01*
X285000Y495000D02*
X292500Y502500D01*
X285000Y477650D02*
Y495000D01*
X418000Y493000D02*
X502364D01*
X412000Y487000D02*
X418000Y493000D01*
X424550Y477500D02*
X511500D01*
X547500Y572500D02*
X560000D01*
X547000Y573000D02*
X547500Y572500D01*
X547000Y577000D02*
Y582500D01*
Y573000D02*
Y577000D01*
X547500Y577500D01*
X560000D01*
X547000Y582500D02*
X560000D01*
X540500D02*
X547000D01*
X484750Y554750D02*
Y564207D01*
X493500Y606500D02*
X508750Y591250D01*
X399000Y558000D02*
Y572350D01*
X386450Y555286D02*
Y572500D01*
X571000Y563000D02*
Y590000D01*
X560000Y402188D02*
X567688D01*
X570500Y562500D02*
X571000Y563000D01*
X560000Y562500D02*
X570500D01*
X567688Y402188D02*
X571000Y405500D01*
X568500Y592500D02*
X571000Y590000D01*
X560000Y592500D02*
X568500D01*
X542500Y587500D02*
X560000D01*
X533000Y597000D02*
X542500Y587500D01*
X524500Y597000D02*
X533000D01*
X531750Y591250D02*
X540500Y582500D01*
X532500Y606500D02*
X546500Y592500D01*
X515000Y606500D02*
X532500D01*
X508750Y591250D02*
X531750D01*
X546500Y592500D02*
X560000D01*
X475000Y606500D02*
X493500D01*
X369136Y589000D02*
X373750Y584386D01*
X358000Y589000D02*
X369136D01*
X354800Y585800D02*
X358000Y589000D01*
X373750Y572500D02*
Y584386D01*
X284850Y477500D02*
X285000Y477650D01*
X412000D02*
Y487000D01*
X411850Y477500D02*
X412000Y477650D01*
X310250Y441750D02*
Y477500D01*
Y441750D02*
X344500Y407500D01*
Y407500D02*
X560000Y407500D01*
X323000Y446000D02*
Y477450D01*
Y446000D02*
X356500Y412500D01*
Y412500D02*
X560000Y412500D01*
X336000Y450000D02*
Y477150D01*
Y450000D02*
X368500Y417500D01*
X369000Y417500D02*
X560000Y417500D01*
X348350Y455650D02*
Y477500D01*
Y455650D02*
X381500Y422500D01*
Y422500D02*
X560000Y422500D01*
X373136Y537500D02*
X560000Y537500D01*
X354800Y555836D02*
X373136Y537500D01*
X354800Y555836D02*
Y585800D01*
X374500Y542500D02*
X560000Y542500D01*
X367000Y550000D02*
X374500Y542500D01*
X304650Y507500D02*
X560000Y507500D01*
X272150Y540000D02*
X304650Y507500D01*
X314350Y512500D02*
X322000D01*
X310250Y547000D02*
X334750Y522500D01*
X297550Y544000D02*
X324050Y517500D01*
X322000Y512500D02*
X560000Y512500D01*
X284850Y542000D02*
X314350Y512500D01*
X334750Y538000D02*
X334950D01*
X345450Y527500D01*
X322950Y549800D02*
X334750Y538000D01*
X322950Y549800D02*
Y572500D01*
X335650Y550850D02*
X354000Y532500D01*
Y532500D02*
X560000Y532500D01*
X335650Y550850D02*
Y572500D01*
X367000Y550000D02*
X367000D01*
X361050Y555950D02*
X367000Y550000D01*
X272150Y540000D02*
Y572500D01*
X284850Y542000D02*
Y572500D01*
X297550Y544000D02*
Y572500D01*
X324050Y517500D02*
X560000Y517500D01*
X310250Y547000D02*
Y572500D01*
X334750Y522500D02*
X560000Y522500D01*
X345450Y527500D02*
X560000Y527500D01*
X361050Y555950D02*
Y572500D01*
D18*
X817000Y690000D02*
X817000Y320000D01*
X835000D01*
X835000Y690000D02*
X835000Y320000D01*
X817000Y690000D02*
X835000D01*
D20*
X0Y30000D02*
G03*
X30000Y0I30000J0D01*
G01*
X970046D02*
G03*
X1000000Y29954I0J29954D01*
G01*
Y770000D02*
G03*
X970000Y800000I-30000J0D01*
G01*
X30000D02*
G03*
X0Y770000I0J-30000D01*
G01*
X30000Y0D02*
X970046D01*
X1000000Y29954D02*
Y770000D01*
X30000Y800000D02*
X970000D01*
X0Y30000D02*
Y770000D01*
D21*
X85000Y701957D02*
D03*
X195000Y646000D02*
D03*
X79650Y510000D02*
D03*
X522000Y743000D02*
D03*
Y779000D02*
D03*
X150000Y702000D02*
D03*
D22*
X600000Y731800D02*
D03*
X630000D02*
D03*
D23*
X660000D02*
D03*
D24*
X630000Y775000D02*
D03*
D25*
X304000Y170513D02*
D03*
X696000D02*
D03*
X340000D02*
D03*
X660000D02*
D03*
X696000Y60000D02*
D03*
X304000D02*
D03*
X660000D02*
D03*
X340000D02*
D03*
D26*
X236500Y293900D02*
D03*
X824100D02*
D03*
X236500Y706100D02*
D03*
D27*
X54250Y352350D02*
D03*
X105050D02*
D03*
X54250Y384100D02*
D03*
X105050D02*
D03*
D28*
X79650D02*
D03*
X89810Y333300D02*
D03*
X69490D02*
D03*
D29*
X949999Y49999D02*
D03*
Y749999D02*
D03*
X49999D02*
D03*
X50000Y50000D02*
D03*
D30*
X150000Y762500D02*
D03*
Y737500D02*
D03*
D31*
X540000Y561000D02*
D03*
X537000Y435250D02*
D03*
X660000Y696000D02*
D03*
X237000Y737500D02*
D03*
X321000Y605000D02*
D03*
X445000D02*
D03*
X450000Y464000D02*
D03*
X470000Y453000D02*
D03*
X505000Y390000D02*
D03*
X135000Y585000D02*
D03*
X465000Y625000D02*
D03*
X127000Y426000D02*
D03*
Y322000D02*
D03*
Y370000D02*
D03*
X18000Y368000D02*
D03*
X445000Y435000D02*
D03*
X375000Y445000D02*
D03*
X825000Y51000D02*
D03*
D32*
X505000Y563957D02*
D03*
X525000D02*
D03*
X465000D02*
D03*
X485000D02*
D03*
X89000Y575000D02*
D03*
X109000D02*
D03*
X393000Y434000D02*
D03*
X413000D02*
D03*
X210000Y737500D02*
D03*
X190000D02*
D03*
D33*
X484500Y583500D02*
D03*
X465500D02*
D03*
X475000Y606500D02*
D03*
X524500Y583500D02*
D03*
X505500D02*
D03*
X515000Y606500D02*
D03*
D34*
X411850Y572500D02*
D03*
X424550D02*
D03*
X411850Y477500D02*
D03*
X424550D02*
D03*
X399150D02*
D03*
X386450D02*
D03*
X373750D02*
D03*
X361050D02*
D03*
X348350D02*
D03*
X335650D02*
D03*
X322950D02*
D03*
X310250D02*
D03*
X297550D02*
D03*
X284850D02*
D03*
X272150D02*
D03*
X259450D02*
D03*
X399150Y572500D02*
D03*
X386450D02*
D03*
X373750D02*
D03*
X361050D02*
D03*
X348350D02*
D03*
X335650D02*
D03*
X322950D02*
D03*
X310250D02*
D03*
X297550D02*
D03*
X284850D02*
D03*
X272150D02*
D03*
X259450D02*
D03*
D35*
X560000Y527500D02*
D03*
Y452500D02*
D03*
Y447500D02*
D03*
Y567500D02*
D03*
Y562500D02*
D03*
Y597500D02*
D03*
Y592500D02*
D03*
Y587500D02*
D03*
Y582500D02*
D03*
Y577500D02*
D03*
Y572500D02*
D03*
Y557500D02*
D03*
Y552500D02*
D03*
Y547500D02*
D03*
Y542500D02*
D03*
Y537500D02*
D03*
Y532500D02*
D03*
Y502500D02*
D03*
Y497500D02*
D03*
Y492500D02*
D03*
Y487500D02*
D03*
Y522500D02*
D03*
Y517500D02*
D03*
Y512500D02*
D03*
Y507500D02*
D03*
Y482500D02*
D03*
Y477500D02*
D03*
Y472500D02*
D03*
Y467500D02*
D03*
Y462500D02*
D03*
Y457500D02*
D03*
Y412500D02*
D03*
Y442500D02*
D03*
Y437500D02*
D03*
Y432500D02*
D03*
Y427500D02*
D03*
Y422500D02*
D03*
Y417500D02*
D03*
Y407500D02*
D03*
Y402500D02*
D03*
D36*
X587000Y381500D02*
D03*
Y618600D02*
D03*
D37*
X415000Y61493D02*
X444990D01*
X429995Y76488D02*
Y46498D01*
X555000Y171493D02*
X584990D01*
X569995Y186488D02*
Y156498D01*
X570000Y61493D02*
X599990D01*
X400000Y171493D02*
X429990D01*
M02*
